<svg xmlns="http://www.w3.org/2000/svg" viewBox="0 0 64 64">
  <defs>
    <linearGradient id="pcV" gradientUnits="userSpaceOnUse" x1="32" y1="3" x2="32" y2="60"><stop offset="0%" stop-color="#f3da90"/><stop offset="44%" stop-color="#7a5bb0"/><stop offset="100%" stop-color="#2b1d4d"/></linearGradient>
    <radialGradient id="pcR" gradientUnits="userSpaceOnUse" cx="32" cy="27" r="31"><stop offset="0%" stop-color="#6a4fa0"/><stop offset="100%" stop-color="#1d1338"/></radialGradient>
  </defs>
  <circle cx="32" cy="32" r="27.5" fill="url(#pcR)"/>
  <circle cx="32" cy="32" r="27.5" fill="none" stroke="#f3da90" stroke-width="1.2" opacity="0.55"/>
  <g transform="translate(32 32) scale(0.82) translate(-32 -32)"><g transform="rotate(0.00 32 32)"><path d="M 32.0 30.6 L 30.0 27.9 L 28.6 23.9 L 27.5 20.6 L 26.7 17.7 L 26.3 15.3 L 26.3 13.2 L 26.6 11.4 L 27.2 9.8 L 28.2 8.4 L 29.3 6.9 L 30.6 5.5 L 33.4 5.5 L 34.7 6.9 L 35.8 8.4 L 36.8 9.8 L 37.4 11.4 L 37.7 13.2 L 37.7 15.3 L 37.3 17.7 L 36.5 20.6 L 35.4 23.9 L 34.0 27.9 Z" fill="url(#pcV)" opacity="0.12"/><path d="M30.5 30 Q 32 38 33.5 30 Z" fill="#f3da90" opacity="0.5"/><g transform="translate(0.8 0.9)" opacity="0.24"><path d="M31.6 30.9 Q 32.1 29.1 30.0 27.9 Q 31.7 29.4 32.4 30.3 Z" fill="#1d1338"/><path d="M31.6 30.3 Q 34.1 29.4 34.0 27.9 Q 33.7 29.1 32.4 30.9 Z" fill="#1d1338"/><path d="M31.5 28.6 Q 31.4 25.9 28.6 23.9 Q 31.0 26.2 32.5 27.7 Z" fill="#1d1338"/><path d="M31.5 27.7 Q 34.8 26.2 35.4 23.9 Q 34.4 25.9 32.5 28.6 Z" fill="#1d1338"/><path d="M31.4 26.3 Q 30.9 22.9 27.5 20.6 Q 30.4 23.4 32.6 25.2 Z" fill="#1d1338"/><path d="M31.4 25.2 Q 35.4 23.4 36.5 20.6 Q 34.9 22.9 32.6 26.3 Z" fill="#1d1338"/><path d="M31.3 24.0 Q 30.6 20.2 26.7 17.7 Q 30.0 20.8 32.7 22.7 Z" fill="#1d1338"/><path d="M31.3 22.7 Q 35.8 20.8 37.3 17.7 Q 35.2 20.2 32.7 24.0 Z" fill="#1d1338"/><path d="M31.2 21.7 Q 30.4 17.8 26.3 15.3 Q 29.8 18.4 32.8 20.2 Z" fill="#1d1338"/><path d="M31.2 20.2 Q 36.0 18.4 37.7 15.3 Q 35.4 17.8 32.8 21.7 Z" fill="#1d1338"/><path d="M31.3 19.3 Q 30.4 15.5 26.3 13.2 Q 29.8 16.2 32.7 17.7 Z" fill="#1d1338"/><path d="M31.3 17.7 Q 36.0 16.2 37.7 13.2 Q 35.4 15.5 32.7 19.3 Z" fill="#1d1338"/><path d="M31.3 16.9 Q 30.5 13.4 26.6 11.4 Q 29.9 14.1 32.7 15.3 Z" fill="#1d1338"/><path d="M31.3 15.3 Q 35.9 14.1 37.4 11.4 Q 35.3 13.4 32.7 16.9 Z" fill="#1d1338"/><path d="M31.4 14.4 Q 30.8 11.4 27.2 9.8 Q 30.3 12.0 32.6 12.9 Z" fill="#1d1338"/><path d="M31.4 12.9 Q 35.5 12.0 36.8 9.8 Q 35.0 11.4 32.6 14.4 Z" fill="#1d1338"/><path d="M31.5 11.9 Q 31.2 9.5 28.2 8.4 Q 30.8 10.1 32.5 10.6 Z" fill="#1d1338"/><path d="M31.5 10.6 Q 35.0 10.1 35.8 8.4 Q 34.6 9.5 32.5 11.9 Z" fill="#1d1338"/><path d="M31.6 9.4 Q 31.7 7.7 29.3 6.9 Q 31.4 8.1 32.4 8.3 Z" fill="#1d1338"/><path d="M31.6 8.3 Q 34.4 8.1 34.7 6.9 Q 34.1 7.7 32.4 9.4 Z" fill="#1d1338"/><path d="M31.7 6.8 Q 32.3 5.8 30.6 5.5 Q 32.1 6.1 32.3 6.0 Z" fill="#1d1338"/><path d="M31.7 6.0 Q 33.7 6.1 33.4 5.5 Q 33.5 5.8 32.3 6.8 Z" fill="#1d1338"/></g><path d="M31.6 30.9 Q 32.1 29.1 30.0 27.9 Q 31.7 29.4 32.4 30.3 Z" fill="rgb(43,65,95)" opacity="0.97"/><path d="M31.6 30.3 Q 34.1 29.4 34.0 27.9 Q 33.7 29.1 32.4 30.9 Z" fill="rgb(43,65,95)" opacity="0.97"/><path d="M31.5 28.6 Q 31.4 25.9 28.6 23.9 Q 31.0 26.2 32.5 27.7 Z" fill="rgb(42,100,114)" opacity="0.97"/><path d="M31.5 27.7 Q 34.8 26.2 35.4 23.9 Q 34.4 25.9 32.5 28.6 Z" fill="rgb(42,100,114)" opacity="0.97"/><path d="M31.4 26.3 Q 30.9 22.9 27.5 20.6 Q 30.4 23.4 32.6 25.2 Z" fill="rgb(42,136,132)" opacity="0.97"/><path d="M31.4 25.2 Q 35.4 23.4 36.5 20.6 Q 34.9 22.9 32.6 26.3 Z" fill="rgb(42,136,132)" opacity="0.97"/><path d="M31.3 24.0 Q 30.6 20.2 26.7 17.7 Q 30.0 20.8 32.7 22.7 Z" fill="rgb(49,148,145)" opacity="0.97"/><path d="M31.3 22.7 Q 35.8 20.8 37.3 17.7 Q 35.2 20.2 32.7 24.0 Z" fill="rgb(49,148,145)" opacity="0.97"/><path d="M31.2 21.7 Q 30.4 17.8 26.3 15.3 Q 29.8 18.4 32.8 20.2 Z" fill="rgb(67,127,150)" opacity="0.97"/><path d="M31.2 20.2 Q 36.0 18.4 37.7 15.3 Q 35.4 17.8 32.8 21.7 Z" fill="rgb(67,127,150)" opacity="0.97"/><path d="M31.3 19.3 Q 30.4 15.5 26.3 13.2 Q 29.8 16.2 32.7 17.7 Z" fill="rgb(85,105,154)" opacity="0.97"/><path d="M31.3 17.7 Q 36.0 16.2 37.7 13.2 Q 35.4 15.5 32.7 19.3 Z" fill="rgb(85,105,154)" opacity="0.97"/><path d="M31.3 16.9 Q 30.5 13.4 26.6 11.4 Q 29.9 14.1 32.7 15.3 Z" fill="rgb(102,83,159)" opacity="0.97"/><path d="M31.3 15.3 Q 35.9 14.1 37.4 11.4 Q 35.3 13.4 32.7 16.9 Z" fill="rgb(102,83,159)" opacity="0.97"/><path d="M31.4 14.4 Q 30.8 11.4 27.2 9.8 Q 30.3 12.0 32.6 12.9 Z" fill="rgb(129,102,157)" opacity="0.97"/><path d="M31.4 12.9 Q 35.5 12.0 36.8 9.8 Q 35.0 11.4 32.6 14.4 Z" fill="rgb(129,102,157)" opacity="0.97"/><path d="M31.5 11.9 Q 31.2 9.5 28.2 8.4 Q 30.8 10.1 32.5 10.6 Z" fill="rgb(157,131,154)" opacity="0.97"/><path d="M31.5 10.6 Q 35.0 10.1 35.8 8.4 Q 34.6 9.5 32.5 11.9 Z" fill="rgb(157,131,154)" opacity="0.97"/><path d="M31.6 9.4 Q 31.7 7.7 29.3 6.9 Q 31.4 8.1 32.4 8.3 Z" fill="rgb(186,160,151)" opacity="0.97"/><path d="M31.6 8.3 Q 34.4 8.1 34.7 6.9 Q 34.1 7.7 32.4 9.4 Z" fill="rgb(186,160,151)" opacity="0.97"/><path d="M31.7 6.8 Q 32.3 5.8 30.6 5.5 Q 32.1 6.1 32.3 6.0 Z" fill="rgb(214,189,147)" opacity="0.97"/><path d="M31.7 6.0 Q 33.7 6.1 33.4 5.5 Q 33.5 5.8 32.3 6.8 Z" fill="rgb(214,189,147)" opacity="0.97"/><path d="M32.0 25.8 L 29.7 23.2" stroke="#f6efdc" stroke-width="0.4" stroke-linecap="round" opacity="0.17"/><path d="M32.0 25.8 L 34.3 23.2" stroke="#f6efdc" stroke-width="0.4" stroke-linecap="round" opacity="0.17"/><path d="M32.0 23.3 L 29.4 20.5" stroke="#f6efdc" stroke-width="0.4" stroke-linecap="round" opacity="0.19"/><path d="M32.0 23.3 L 34.6 20.5" stroke="#f6efdc" stroke-width="0.4" stroke-linecap="round" opacity="0.19"/><path d="M32.0 20.9 L 29.2 18.1" stroke="#f6efdc" stroke-width="0.4" stroke-linecap="round" opacity="0.20"/><path d="M32.0 20.9 L 34.8 18.1" stroke="#f6efdc" stroke-width="0.4" stroke-linecap="round" opacity="0.20"/><path d="M32.0 18.5 L 29.2 15.8" stroke="#f6efdc" stroke-width="0.4" stroke-linecap="round" opacity="0.22"/><path d="M32.0 18.5 L 34.8 15.8" stroke="#f6efdc" stroke-width="0.4" stroke-linecap="round" opacity="0.22"/><path d="M32.0 16.1 L 29.3 13.7" stroke="#f6efdc" stroke-width="0.4" stroke-linecap="round" opacity="0.24"/><path d="M32.0 16.1 L 34.7 13.7" stroke="#f6efdc" stroke-width="0.4" stroke-linecap="round" opacity="0.24"/><path d="M32.0 13.7 L 29.6 11.7" stroke="#f6efdc" stroke-width="0.4" stroke-linecap="round" opacity="0.25"/><path d="M32.0 13.7 L 34.4 11.7" stroke="#f6efdc" stroke-width="0.4" stroke-linecap="round" opacity="0.25"/><path d="M32.0 11.3 L 30.1 9.8" stroke="#f6efdc" stroke-width="0.4" stroke-linecap="round" opacity="0.27"/><path d="M32.0 11.3 L 33.9 9.8" stroke="#f6efdc" stroke-width="0.4" stroke-linecap="round" opacity="0.27"/><path d="M32.0 8.8 L 30.6 7.9" stroke="#f6efdc" stroke-width="0.4" stroke-linecap="round" opacity="0.29"/><path d="M32.0 8.8 L 33.4 7.9" stroke="#f6efdc" stroke-width="0.4" stroke-linecap="round" opacity="0.29"/><path d="M32.0 6.4 L 31.3 6.0" stroke="#f6efdc" stroke-width="0.4" stroke-linecap="round" opacity="0.30"/><path d="M32.0 6.4 L 32.7 6.0" stroke="#f6efdc" stroke-width="0.4" stroke-linecap="round" opacity="0.30"/><path d="M32 33 Q 32 18.5 32 4" stroke="#f3da90" stroke-width="1.7" fill="none" stroke-linecap="round" opacity="0.95"/></g><g transform="rotate(45.00 32 32)"><path d="M 32.0 30.6 L 30.0 27.9 L 28.6 23.9 L 27.5 20.6 L 26.7 17.7 L 26.3 15.3 L 26.3 13.2 L 26.6 11.4 L 27.2 9.8 L 28.2 8.4 L 29.3 6.9 L 30.6 5.5 L 33.4 5.5 L 34.7 6.9 L 35.8 8.4 L 36.8 9.8 L 37.4 11.4 L 37.7 13.2 L 37.7 15.3 L 37.3 17.7 L 36.5 20.6 L 35.4 23.9 L 34.0 27.9 Z" fill="url(#pcV)" opacity="0.12"/><path d="M30.5 30 Q 32 38 33.5 30 Z" fill="#f3da90" opacity="0.5"/><g transform="translate(0.8 0.9)" opacity="0.24"><path d="M31.6 30.9 Q 32.1 29.1 30.0 27.9 Q 31.7 29.4 32.4 30.3 Z" fill="#1d1338"/><path d="M31.6 30.3 Q 34.1 29.4 34.0 27.9 Q 33.7 29.1 32.4 30.9 Z" fill="#1d1338"/><path d="M31.5 28.6 Q 31.4 25.9 28.6 23.9 Q 31.0 26.2 32.5 27.7 Z" fill="#1d1338"/><path d="M31.5 27.7 Q 34.8 26.2 35.4 23.9 Q 34.4 25.9 32.5 28.6 Z" fill="#1d1338"/><path d="M31.4 26.3 Q 30.9 22.9 27.5 20.6 Q 30.4 23.4 32.6 25.2 Z" fill="#1d1338"/><path d="M31.4 25.2 Q 35.4 23.4 36.5 20.6 Q 34.9 22.9 32.6 26.3 Z" fill="#1d1338"/><path d="M31.3 24.0 Q 30.6 20.2 26.7 17.7 Q 30.0 20.8 32.7 22.7 Z" fill="#1d1338"/><path d="M31.3 22.7 Q 35.8 20.8 37.3 17.7 Q 35.2 20.2 32.7 24.0 Z" fill="#1d1338"/><path d="M31.2 21.7 Q 30.4 17.8 26.3 15.3 Q 29.8 18.4 32.8 20.2 Z" fill="#1d1338"/><path d="M31.2 20.2 Q 36.0 18.4 37.7 15.3 Q 35.4 17.8 32.8 21.7 Z" fill="#1d1338"/><path d="M31.3 19.3 Q 30.4 15.5 26.3 13.2 Q 29.8 16.2 32.7 17.7 Z" fill="#1d1338"/><path d="M31.3 17.7 Q 36.0 16.2 37.7 13.2 Q 35.4 15.5 32.7 19.3 Z" fill="#1d1338"/><path d="M31.3 16.9 Q 30.5 13.4 26.6 11.4 Q 29.9 14.1 32.7 15.3 Z" fill="#1d1338"/><path d="M31.3 15.3 Q 35.9 14.1 37.4 11.4 Q 35.3 13.4 32.7 16.9 Z" fill="#1d1338"/><path d="M31.4 14.4 Q 30.8 11.4 27.2 9.8 Q 30.3 12.0 32.6 12.9 Z" fill="#1d1338"/><path d="M31.4 12.9 Q 35.5 12.0 36.8 9.8 Q 35.0 11.4 32.6 14.4 Z" fill="#1d1338"/><path d="M31.5 11.9 Q 31.2 9.5 28.2 8.4 Q 30.8 10.1 32.5 10.6 Z" fill="#1d1338"/><path d="M31.5 10.6 Q 35.0 10.1 35.8 8.4 Q 34.6 9.5 32.5 11.9 Z" fill="#1d1338"/><path d="M31.6 9.4 Q 31.7 7.7 29.3 6.9 Q 31.4 8.1 32.4 8.3 Z" fill="#1d1338"/><path d="M31.6 8.3 Q 34.4 8.1 34.7 6.9 Q 34.1 7.7 32.4 9.4 Z" fill="#1d1338"/><path d="M31.7 6.8 Q 32.3 5.8 30.6 5.5 Q 32.1 6.1 32.3 6.0 Z" fill="#1d1338"/><path d="M31.7 6.0 Q 33.7 6.1 33.4 5.5 Q 33.5 5.8 32.3 6.8 Z" fill="#1d1338"/></g><path d="M31.6 30.9 Q 32.1 29.1 30.0 27.9 Q 31.7 29.4 32.4 30.3 Z" fill="rgb(43,65,95)" opacity="0.97"/><path d="M31.6 30.3 Q 34.1 29.4 34.0 27.9 Q 33.7 29.1 32.4 30.9 Z" fill="rgb(43,65,95)" opacity="0.97"/><path d="M31.5 28.6 Q 31.4 25.9 28.6 23.9 Q 31.0 26.2 32.5 27.7 Z" fill="rgb(42,100,114)" opacity="0.97"/><path d="M31.5 27.7 Q 34.8 26.2 35.4 23.9 Q 34.4 25.9 32.5 28.6 Z" fill="rgb(42,100,114)" opacity="0.97"/><path d="M31.4 26.3 Q 30.9 22.9 27.5 20.6 Q 30.4 23.4 32.6 25.2 Z" fill="rgb(42,136,132)" opacity="0.97"/><path d="M31.4 25.2 Q 35.4 23.4 36.5 20.6 Q 34.9 22.9 32.6 26.3 Z" fill="rgb(42,136,132)" opacity="0.97"/><path d="M31.3 24.0 Q 30.6 20.2 26.7 17.7 Q 30.0 20.8 32.7 22.7 Z" fill="rgb(49,148,145)" opacity="0.97"/><path d="M31.3 22.7 Q 35.8 20.8 37.3 17.7 Q 35.2 20.2 32.7 24.0 Z" fill="rgb(49,148,145)" opacity="0.97"/><path d="M31.2 21.7 Q 30.4 17.8 26.3 15.3 Q 29.8 18.4 32.8 20.2 Z" fill="rgb(67,127,150)" opacity="0.97"/><path d="M31.2 20.2 Q 36.0 18.4 37.7 15.3 Q 35.4 17.8 32.8 21.7 Z" fill="rgb(67,127,150)" opacity="0.97"/><path d="M31.3 19.3 Q 30.4 15.5 26.3 13.2 Q 29.8 16.2 32.7 17.7 Z" fill="rgb(85,105,154)" opacity="0.97"/><path d="M31.3 17.7 Q 36.0 16.2 37.7 13.2 Q 35.4 15.5 32.7 19.3 Z" fill="rgb(85,105,154)" opacity="0.97"/><path d="M31.3 16.9 Q 30.5 13.4 26.6 11.4 Q 29.9 14.1 32.7 15.3 Z" fill="rgb(102,83,159)" opacity="0.97"/><path d="M31.3 15.3 Q 35.9 14.1 37.4 11.4 Q 35.3 13.4 32.7 16.9 Z" fill="rgb(102,83,159)" opacity="0.97"/><path d="M31.4 14.4 Q 30.8 11.4 27.2 9.8 Q 30.3 12.0 32.6 12.9 Z" fill="rgb(129,102,157)" opacity="0.97"/><path d="M31.4 12.9 Q 35.5 12.0 36.8 9.8 Q 35.0 11.4 32.6 14.4 Z" fill="rgb(129,102,157)" opacity="0.97"/><path d="M31.5 11.9 Q 31.2 9.5 28.2 8.4 Q 30.8 10.1 32.5 10.6 Z" fill="rgb(157,131,154)" opacity="0.97"/><path d="M31.5 10.6 Q 35.0 10.1 35.8 8.4 Q 34.6 9.5 32.5 11.9 Z" fill="rgb(157,131,154)" opacity="0.97"/><path d="M31.6 9.4 Q 31.7 7.7 29.3 6.9 Q 31.4 8.1 32.4 8.3 Z" fill="rgb(186,160,151)" opacity="0.97"/><path d="M31.6 8.3 Q 34.4 8.1 34.7 6.9 Q 34.1 7.7 32.4 9.4 Z" fill="rgb(186,160,151)" opacity="0.97"/><path d="M31.7 6.8 Q 32.3 5.8 30.6 5.5 Q 32.1 6.1 32.3 6.0 Z" fill="rgb(214,189,147)" opacity="0.97"/><path d="M31.7 6.0 Q 33.7 6.1 33.4 5.5 Q 33.5 5.8 32.3 6.8 Z" fill="rgb(214,189,147)" opacity="0.97"/><path d="M32.0 25.8 L 29.7 23.2" stroke="#f6efdc" stroke-width="0.4" stroke-linecap="round" opacity="0.17"/><path d="M32.0 25.8 L 34.3 23.2" stroke="#f6efdc" stroke-width="0.4" stroke-linecap="round" opacity="0.17"/><path d="M32.0 23.3 L 29.4 20.5" stroke="#f6efdc" stroke-width="0.4" stroke-linecap="round" opacity="0.19"/><path d="M32.0 23.3 L 34.6 20.5" stroke="#f6efdc" stroke-width="0.4" stroke-linecap="round" opacity="0.19"/><path d="M32.0 20.9 L 29.2 18.1" stroke="#f6efdc" stroke-width="0.4" stroke-linecap="round" opacity="0.20"/><path d="M32.0 20.9 L 34.8 18.1" stroke="#f6efdc" stroke-width="0.4" stroke-linecap="round" opacity="0.20"/><path d="M32.0 18.5 L 29.2 15.8" stroke="#f6efdc" stroke-width="0.4" stroke-linecap="round" opacity="0.22"/><path d="M32.0 18.5 L 34.8 15.8" stroke="#f6efdc" stroke-width="0.4" stroke-linecap="round" opacity="0.22"/><path d="M32.0 16.1 L 29.3 13.7" stroke="#f6efdc" stroke-width="0.4" stroke-linecap="round" opacity="0.24"/><path d="M32.0 16.1 L 34.7 13.7" stroke="#f6efdc" stroke-width="0.4" stroke-linecap="round" opacity="0.24"/><path d="M32.0 13.7 L 29.6 11.7" stroke="#f6efdc" stroke-width="0.4" stroke-linecap="round" opacity="0.25"/><path d="M32.0 13.7 L 34.4 11.7" stroke="#f6efdc" stroke-width="0.4" stroke-linecap="round" opacity="0.25"/><path d="M32.0 11.3 L 30.1 9.8" stroke="#f6efdc" stroke-width="0.4" stroke-linecap="round" opacity="0.27"/><path d="M32.0 11.3 L 33.9 9.8" stroke="#f6efdc" stroke-width="0.4" stroke-linecap="round" opacity="0.27"/><path d="M32.0 8.8 L 30.6 7.9" stroke="#f6efdc" stroke-width="0.4" stroke-linecap="round" opacity="0.29"/><path d="M32.0 8.8 L 33.4 7.9" stroke="#f6efdc" stroke-width="0.4" stroke-linecap="round" opacity="0.29"/><path d="M32.0 6.4 L 31.3 6.0" stroke="#f6efdc" stroke-width="0.4" stroke-linecap="round" opacity="0.30"/><path d="M32.0 6.4 L 32.7 6.0" stroke="#f6efdc" stroke-width="0.4" stroke-linecap="round" opacity="0.30"/><path d="M32 33 Q 32 18.5 32 4" stroke="#f3da90" stroke-width="1.7" fill="none" stroke-linecap="round" opacity="0.95"/></g><g transform="rotate(90.00 32 32)"><path d="M 32.0 30.6 L 30.0 27.9 L 28.6 23.9 L 27.5 20.6 L 26.7 17.7 L 26.3 15.3 L 26.3 13.2 L 26.6 11.4 L 27.2 9.8 L 28.2 8.4 L 29.3 6.9 L 30.6 5.5 L 33.4 5.5 L 34.7 6.9 L 35.8 8.4 L 36.8 9.8 L 37.4 11.4 L 37.7 13.2 L 37.7 15.3 L 37.3 17.7 L 36.5 20.6 L 35.4 23.9 L 34.0 27.9 Z" fill="url(#pcV)" opacity="0.12"/><path d="M30.5 30 Q 32 38 33.5 30 Z" fill="#f3da90" opacity="0.5"/><g transform="translate(0.8 0.9)" opacity="0.24"><path d="M31.6 30.9 Q 32.1 29.1 30.0 27.9 Q 31.7 29.4 32.4 30.3 Z" fill="#1d1338"/><path d="M31.6 30.3 Q 34.1 29.4 34.0 27.9 Q 33.7 29.1 32.4 30.9 Z" fill="#1d1338"/><path d="M31.5 28.6 Q 31.4 25.9 28.6 23.9 Q 31.0 26.2 32.5 27.7 Z" fill="#1d1338"/><path d="M31.5 27.7 Q 34.8 26.2 35.4 23.9 Q 34.4 25.9 32.5 28.6 Z" fill="#1d1338"/><path d="M31.4 26.3 Q 30.9 22.9 27.5 20.6 Q 30.4 23.4 32.6 25.2 Z" fill="#1d1338"/><path d="M31.4 25.2 Q 35.4 23.4 36.5 20.6 Q 34.9 22.9 32.6 26.3 Z" fill="#1d1338"/><path d="M31.3 24.0 Q 30.6 20.2 26.7 17.7 Q 30.0 20.8 32.7 22.7 Z" fill="#1d1338"/><path d="M31.3 22.7 Q 35.8 20.8 37.3 17.7 Q 35.2 20.2 32.7 24.0 Z" fill="#1d1338"/><path d="M31.2 21.7 Q 30.4 17.8 26.3 15.3 Q 29.8 18.4 32.8 20.2 Z" fill="#1d1338"/><path d="M31.2 20.2 Q 36.0 18.4 37.7 15.3 Q 35.4 17.8 32.8 21.7 Z" fill="#1d1338"/><path d="M31.3 19.3 Q 30.4 15.5 26.3 13.2 Q 29.8 16.2 32.7 17.7 Z" fill="#1d1338"/><path d="M31.3 17.7 Q 36.0 16.2 37.7 13.2 Q 35.4 15.5 32.7 19.3 Z" fill="#1d1338"/><path d="M31.3 16.9 Q 30.5 13.4 26.6 11.4 Q 29.9 14.1 32.7 15.3 Z" fill="#1d1338"/><path d="M31.3 15.3 Q 35.9 14.1 37.4 11.4 Q 35.3 13.4 32.7 16.9 Z" fill="#1d1338"/><path d="M31.4 14.4 Q 30.8 11.4 27.2 9.8 Q 30.3 12.0 32.6 12.9 Z" fill="#1d1338"/><path d="M31.4 12.9 Q 35.5 12.0 36.8 9.8 Q 35.0 11.4 32.6 14.4 Z" fill="#1d1338"/><path d="M31.5 11.9 Q 31.2 9.5 28.2 8.4 Q 30.8 10.1 32.5 10.6 Z" fill="#1d1338"/><path d="M31.5 10.6 Q 35.0 10.1 35.8 8.4 Q 34.6 9.5 32.5 11.9 Z" fill="#1d1338"/><path d="M31.6 9.4 Q 31.7 7.7 29.3 6.9 Q 31.4 8.1 32.4 8.3 Z" fill="#1d1338"/><path d="M31.6 8.3 Q 34.4 8.1 34.7 6.9 Q 34.1 7.7 32.4 9.4 Z" fill="#1d1338"/><path d="M31.7 6.8 Q 32.3 5.8 30.6 5.5 Q 32.1 6.1 32.3 6.0 Z" fill="#1d1338"/><path d="M31.7 6.0 Q 33.7 6.1 33.4 5.5 Q 33.5 5.8 32.3 6.8 Z" fill="#1d1338"/></g><path d="M31.6 30.9 Q 32.1 29.1 30.0 27.9 Q 31.7 29.4 32.4 30.3 Z" fill="rgb(43,65,95)" opacity="0.97"/><path d="M31.6 30.3 Q 34.1 29.4 34.0 27.9 Q 33.7 29.1 32.4 30.9 Z" fill="rgb(43,65,95)" opacity="0.97"/><path d="M31.5 28.6 Q 31.4 25.9 28.6 23.9 Q 31.0 26.2 32.5 27.7 Z" fill="rgb(42,100,114)" opacity="0.97"/><path d="M31.5 27.7 Q 34.8 26.2 35.4 23.9 Q 34.4 25.9 32.5 28.6 Z" fill="rgb(42,100,114)" opacity="0.97"/><path d="M31.4 26.3 Q 30.9 22.9 27.5 20.6 Q 30.4 23.4 32.6 25.2 Z" fill="rgb(42,136,132)" opacity="0.97"/><path d="M31.4 25.2 Q 35.4 23.4 36.5 20.6 Q 34.9 22.9 32.6 26.3 Z" fill="rgb(42,136,132)" opacity="0.97"/><path d="M31.3 24.0 Q 30.6 20.2 26.7 17.7 Q 30.0 20.8 32.7 22.7 Z" fill="rgb(49,148,145)" opacity="0.97"/><path d="M31.3 22.7 Q 35.8 20.8 37.3 17.7 Q 35.2 20.2 32.7 24.0 Z" fill="rgb(49,148,145)" opacity="0.97"/><path d="M31.2 21.7 Q 30.4 17.8 26.3 15.3 Q 29.8 18.4 32.8 20.2 Z" fill="rgb(67,127,150)" opacity="0.97"/><path d="M31.2 20.2 Q 36.0 18.4 37.7 15.3 Q 35.4 17.8 32.8 21.7 Z" fill="rgb(67,127,150)" opacity="0.97"/><path d="M31.3 19.3 Q 30.4 15.5 26.3 13.2 Q 29.8 16.2 32.7 17.7 Z" fill="rgb(85,105,154)" opacity="0.97"/><path d="M31.3 17.7 Q 36.0 16.2 37.7 13.2 Q 35.4 15.5 32.7 19.3 Z" fill="rgb(85,105,154)" opacity="0.97"/><path d="M31.3 16.9 Q 30.5 13.4 26.6 11.4 Q 29.9 14.1 32.7 15.3 Z" fill="rgb(102,83,159)" opacity="0.97"/><path d="M31.3 15.3 Q 35.9 14.1 37.4 11.4 Q 35.3 13.4 32.7 16.9 Z" fill="rgb(102,83,159)" opacity="0.97"/><path d="M31.4 14.4 Q 30.8 11.4 27.2 9.8 Q 30.3 12.0 32.6 12.9 Z" fill="rgb(129,102,157)" opacity="0.97"/><path d="M31.4 12.9 Q 35.5 12.0 36.8 9.8 Q 35.0 11.4 32.6 14.4 Z" fill="rgb(129,102,157)" opacity="0.97"/><path d="M31.5 11.9 Q 31.2 9.5 28.2 8.4 Q 30.8 10.1 32.5 10.6 Z" fill="rgb(157,131,154)" opacity="0.97"/><path d="M31.5 10.6 Q 35.0 10.1 35.8 8.4 Q 34.6 9.5 32.5 11.9 Z" fill="rgb(157,131,154)" opacity="0.97"/><path d="M31.6 9.4 Q 31.7 7.7 29.3 6.9 Q 31.4 8.1 32.4 8.3 Z" fill="rgb(186,160,151)" opacity="0.97"/><path d="M31.6 8.3 Q 34.4 8.1 34.7 6.9 Q 34.1 7.7 32.4 9.4 Z" fill="rgb(186,160,151)" opacity="0.97"/><path d="M31.7 6.8 Q 32.3 5.8 30.6 5.5 Q 32.1 6.1 32.3 6.0 Z" fill="rgb(214,189,147)" opacity="0.97"/><path d="M31.7 6.0 Q 33.7 6.1 33.4 5.5 Q 33.5 5.8 32.3 6.8 Z" fill="rgb(214,189,147)" opacity="0.97"/><path d="M32.0 25.8 L 29.7 23.2" stroke="#f6efdc" stroke-width="0.4" stroke-linecap="round" opacity="0.17"/><path d="M32.0 25.8 L 34.3 23.2" stroke="#f6efdc" stroke-width="0.4" stroke-linecap="round" opacity="0.17"/><path d="M32.0 23.3 L 29.4 20.5" stroke="#f6efdc" stroke-width="0.4" stroke-linecap="round" opacity="0.19"/><path d="M32.0 23.3 L 34.6 20.5" stroke="#f6efdc" stroke-width="0.4" stroke-linecap="round" opacity="0.19"/><path d="M32.0 20.9 L 29.2 18.1" stroke="#f6efdc" stroke-width="0.4" stroke-linecap="round" opacity="0.20"/><path d="M32.0 20.9 L 34.8 18.1" stroke="#f6efdc" stroke-width="0.4" stroke-linecap="round" opacity="0.20"/><path d="M32.0 18.5 L 29.2 15.8" stroke="#f6efdc" stroke-width="0.4" stroke-linecap="round" opacity="0.22"/><path d="M32.0 18.5 L 34.8 15.8" stroke="#f6efdc" stroke-width="0.4" stroke-linecap="round" opacity="0.22"/><path d="M32.0 16.1 L 29.3 13.7" stroke="#f6efdc" stroke-width="0.4" stroke-linecap="round" opacity="0.24"/><path d="M32.0 16.1 L 34.7 13.7" stroke="#f6efdc" stroke-width="0.4" stroke-linecap="round" opacity="0.24"/><path d="M32.0 13.7 L 29.6 11.7" stroke="#f6efdc" stroke-width="0.4" stroke-linecap="round" opacity="0.25"/><path d="M32.0 13.7 L 34.4 11.7" stroke="#f6efdc" stroke-width="0.4" stroke-linecap="round" opacity="0.25"/><path d="M32.0 11.3 L 30.1 9.8" stroke="#f6efdc" stroke-width="0.4" stroke-linecap="round" opacity="0.27"/><path d="M32.0 11.3 L 33.9 9.8" stroke="#f6efdc" stroke-width="0.4" stroke-linecap="round" opacity="0.27"/><path d="M32.0 8.8 L 30.6 7.9" stroke="#f6efdc" stroke-width="0.4" stroke-linecap="round" opacity="0.29"/><path d="M32.0 8.8 L 33.4 7.9" stroke="#f6efdc" stroke-width="0.4" stroke-linecap="round" opacity="0.29"/><path d="M32.0 6.4 L 31.3 6.0" stroke="#f6efdc" stroke-width="0.4" stroke-linecap="round" opacity="0.30"/><path d="M32.0 6.4 L 32.7 6.0" stroke="#f6efdc" stroke-width="0.4" stroke-linecap="round" opacity="0.30"/><path d="M32 33 Q 32 18.5 32 4" stroke="#f3da90" stroke-width="1.7" fill="none" stroke-linecap="round" opacity="0.95"/></g><g transform="rotate(135.00 32 32)"><path d="M 32.0 30.6 L 30.0 27.9 L 28.6 23.9 L 27.5 20.6 L 26.7 17.7 L 26.3 15.3 L 26.3 13.2 L 26.6 11.4 L 27.2 9.8 L 28.2 8.4 L 29.3 6.9 L 30.6 5.5 L 33.4 5.5 L 34.7 6.9 L 35.8 8.4 L 36.8 9.8 L 37.4 11.4 L 37.7 13.2 L 37.7 15.3 L 37.3 17.7 L 36.5 20.6 L 35.4 23.9 L 34.0 27.9 Z" fill="url(#pcV)" opacity="0.12"/><path d="M30.5 30 Q 32 38 33.5 30 Z" fill="#f3da90" opacity="0.5"/><g transform="translate(0.8 0.9)" opacity="0.24"><path d="M31.6 30.9 Q 32.1 29.1 30.0 27.9 Q 31.7 29.4 32.4 30.3 Z" fill="#1d1338"/><path d="M31.6 30.3 Q 34.1 29.4 34.0 27.9 Q 33.7 29.1 32.4 30.9 Z" fill="#1d1338"/><path d="M31.5 28.6 Q 31.4 25.9 28.6 23.9 Q 31.0 26.2 32.5 27.7 Z" fill="#1d1338"/><path d="M31.5 27.7 Q 34.8 26.2 35.4 23.9 Q 34.4 25.9 32.5 28.6 Z" fill="#1d1338"/><path d="M31.4 26.3 Q 30.9 22.9 27.5 20.6 Q 30.4 23.4 32.6 25.2 Z" fill="#1d1338"/><path d="M31.4 25.2 Q 35.4 23.4 36.5 20.6 Q 34.9 22.9 32.6 26.3 Z" fill="#1d1338"/><path d="M31.3 24.0 Q 30.6 20.2 26.7 17.7 Q 30.0 20.8 32.7 22.7 Z" fill="#1d1338"/><path d="M31.3 22.7 Q 35.8 20.8 37.3 17.7 Q 35.2 20.2 32.7 24.0 Z" fill="#1d1338"/><path d="M31.2 21.7 Q 30.4 17.8 26.3 15.3 Q 29.8 18.4 32.8 20.2 Z" fill="#1d1338"/><path d="M31.2 20.2 Q 36.0 18.4 37.7 15.3 Q 35.4 17.8 32.8 21.7 Z" fill="#1d1338"/><path d="M31.3 19.3 Q 30.4 15.5 26.3 13.2 Q 29.8 16.2 32.7 17.7 Z" fill="#1d1338"/><path d="M31.3 17.7 Q 36.0 16.2 37.7 13.2 Q 35.4 15.5 32.7 19.3 Z" fill="#1d1338"/><path d="M31.3 16.9 Q 30.5 13.4 26.6 11.4 Q 29.9 14.1 32.7 15.3 Z" fill="#1d1338"/><path d="M31.3 15.3 Q 35.9 14.1 37.4 11.4 Q 35.3 13.4 32.7 16.9 Z" fill="#1d1338"/><path d="M31.4 14.4 Q 30.8 11.4 27.2 9.8 Q 30.3 12.0 32.6 12.9 Z" fill="#1d1338"/><path d="M31.4 12.9 Q 35.5 12.0 36.8 9.8 Q 35.0 11.4 32.6 14.4 Z" fill="#1d1338"/><path d="M31.5 11.9 Q 31.2 9.5 28.2 8.4 Q 30.8 10.1 32.5 10.6 Z" fill="#1d1338"/><path d="M31.5 10.6 Q 35.0 10.1 35.8 8.4 Q 34.6 9.5 32.5 11.9 Z" fill="#1d1338"/><path d="M31.6 9.4 Q 31.7 7.7 29.3 6.9 Q 31.4 8.1 32.4 8.3 Z" fill="#1d1338"/><path d="M31.6 8.3 Q 34.4 8.1 34.7 6.9 Q 34.1 7.7 32.4 9.4 Z" fill="#1d1338"/><path d="M31.7 6.8 Q 32.3 5.8 30.6 5.5 Q 32.1 6.1 32.3 6.0 Z" fill="#1d1338"/><path d="M31.7 6.0 Q 33.7 6.1 33.4 5.5 Q 33.5 5.8 32.3 6.8 Z" fill="#1d1338"/></g><path d="M31.6 30.9 Q 32.1 29.1 30.0 27.9 Q 31.7 29.4 32.4 30.3 Z" fill="rgb(43,65,95)" opacity="0.97"/><path d="M31.6 30.3 Q 34.1 29.4 34.0 27.9 Q 33.7 29.1 32.4 30.9 Z" fill="rgb(43,65,95)" opacity="0.97"/><path d="M31.5 28.6 Q 31.4 25.9 28.6 23.9 Q 31.0 26.2 32.5 27.7 Z" fill="rgb(42,100,114)" opacity="0.97"/><path d="M31.5 27.7 Q 34.8 26.2 35.4 23.9 Q 34.4 25.9 32.5 28.6 Z" fill="rgb(42,100,114)" opacity="0.97"/><path d="M31.4 26.3 Q 30.9 22.9 27.5 20.6 Q 30.4 23.4 32.6 25.2 Z" fill="rgb(42,136,132)" opacity="0.97"/><path d="M31.4 25.2 Q 35.4 23.4 36.5 20.6 Q 34.9 22.9 32.6 26.3 Z" fill="rgb(42,136,132)" opacity="0.97"/><path d="M31.3 24.0 Q 30.6 20.2 26.7 17.7 Q 30.0 20.8 32.7 22.7 Z" fill="rgb(49,148,145)" opacity="0.97"/><path d="M31.3 22.7 Q 35.8 20.8 37.3 17.7 Q 35.2 20.2 32.7 24.0 Z" fill="rgb(49,148,145)" opacity="0.97"/><path d="M31.2 21.7 Q 30.4 17.8 26.3 15.3 Q 29.8 18.4 32.8 20.2 Z" fill="rgb(67,127,150)" opacity="0.97"/><path d="M31.2 20.2 Q 36.0 18.4 37.7 15.3 Q 35.4 17.8 32.8 21.7 Z" fill="rgb(67,127,150)" opacity="0.97"/><path d="M31.3 19.3 Q 30.4 15.5 26.3 13.2 Q 29.8 16.2 32.7 17.7 Z" fill="rgb(85,105,154)" opacity="0.97"/><path d="M31.3 17.7 Q 36.0 16.2 37.7 13.2 Q 35.4 15.5 32.7 19.3 Z" fill="rgb(85,105,154)" opacity="0.97"/><path d="M31.3 16.9 Q 30.5 13.4 26.6 11.4 Q 29.9 14.1 32.7 15.3 Z" fill="rgb(102,83,159)" opacity="0.97"/><path d="M31.3 15.3 Q 35.9 14.1 37.4 11.4 Q 35.3 13.4 32.7 16.9 Z" fill="rgb(102,83,159)" opacity="0.97"/><path d="M31.4 14.4 Q 30.8 11.4 27.2 9.8 Q 30.3 12.0 32.6 12.9 Z" fill="rgb(129,102,157)" opacity="0.97"/><path d="M31.4 12.9 Q 35.5 12.0 36.8 9.8 Q 35.0 11.4 32.6 14.4 Z" fill="rgb(129,102,157)" opacity="0.97"/><path d="M31.5 11.9 Q 31.2 9.5 28.2 8.4 Q 30.8 10.1 32.5 10.6 Z" fill="rgb(157,131,154)" opacity="0.97"/><path d="M31.5 10.6 Q 35.0 10.1 35.8 8.4 Q 34.6 9.5 32.5 11.9 Z" fill="rgb(157,131,154)" opacity="0.97"/><path d="M31.6 9.4 Q 31.7 7.7 29.3 6.9 Q 31.4 8.1 32.4 8.3 Z" fill="rgb(186,160,151)" opacity="0.97"/><path d="M31.6 8.3 Q 34.4 8.1 34.7 6.9 Q 34.1 7.7 32.4 9.4 Z" fill="rgb(186,160,151)" opacity="0.97"/><path d="M31.7 6.8 Q 32.3 5.8 30.6 5.5 Q 32.1 6.1 32.3 6.0 Z" fill="rgb(214,189,147)" opacity="0.97"/><path d="M31.7 6.0 Q 33.7 6.1 33.4 5.5 Q 33.5 5.8 32.3 6.8 Z" fill="rgb(214,189,147)" opacity="0.97"/><path d="M32.0 25.8 L 29.7 23.2" stroke="#f6efdc" stroke-width="0.4" stroke-linecap="round" opacity="0.17"/><path d="M32.0 25.8 L 34.3 23.2" stroke="#f6efdc" stroke-width="0.4" stroke-linecap="round" opacity="0.17"/><path d="M32.0 23.3 L 29.4 20.5" stroke="#f6efdc" stroke-width="0.4" stroke-linecap="round" opacity="0.19"/><path d="M32.0 23.3 L 34.6 20.5" stroke="#f6efdc" stroke-width="0.4" stroke-linecap="round" opacity="0.19"/><path d="M32.0 20.9 L 29.2 18.1" stroke="#f6efdc" stroke-width="0.4" stroke-linecap="round" opacity="0.20"/><path d="M32.0 20.9 L 34.8 18.1" stroke="#f6efdc" stroke-width="0.4" stroke-linecap="round" opacity="0.20"/><path d="M32.0 18.5 L 29.2 15.8" stroke="#f6efdc" stroke-width="0.4" stroke-linecap="round" opacity="0.22"/><path d="M32.0 18.5 L 34.8 15.8" stroke="#f6efdc" stroke-width="0.4" stroke-linecap="round" opacity="0.22"/><path d="M32.0 16.1 L 29.3 13.7" stroke="#f6efdc" stroke-width="0.4" stroke-linecap="round" opacity="0.24"/><path d="M32.0 16.1 L 34.7 13.7" stroke="#f6efdc" stroke-width="0.4" stroke-linecap="round" opacity="0.24"/><path d="M32.0 13.7 L 29.6 11.7" stroke="#f6efdc" stroke-width="0.4" stroke-linecap="round" opacity="0.25"/><path d="M32.0 13.7 L 34.4 11.7" stroke="#f6efdc" stroke-width="0.4" stroke-linecap="round" opacity="0.25"/><path d="M32.0 11.3 L 30.1 9.8" stroke="#f6efdc" stroke-width="0.4" stroke-linecap="round" opacity="0.27"/><path d="M32.0 11.3 L 33.9 9.8" stroke="#f6efdc" stroke-width="0.4" stroke-linecap="round" opacity="0.27"/><path d="M32.0 8.8 L 30.6 7.9" stroke="#f6efdc" stroke-width="0.4" stroke-linecap="round" opacity="0.29"/><path d="M32.0 8.8 L 33.4 7.9" stroke="#f6efdc" stroke-width="0.4" stroke-linecap="round" opacity="0.29"/><path d="M32.0 6.4 L 31.3 6.0" stroke="#f6efdc" stroke-width="0.4" stroke-linecap="round" opacity="0.30"/><path d="M32.0 6.4 L 32.7 6.0" stroke="#f6efdc" stroke-width="0.4" stroke-linecap="round" opacity="0.30"/><path d="M32 33 Q 32 18.5 32 4" stroke="#f3da90" stroke-width="1.7" fill="none" stroke-linecap="round" opacity="0.95"/></g><g transform="rotate(180.00 32 32)"><path d="M 32.0 30.6 L 30.0 27.9 L 28.6 23.9 L 27.5 20.6 L 26.7 17.7 L 26.3 15.3 L 26.3 13.2 L 26.6 11.4 L 27.2 9.8 L 28.2 8.4 L 29.3 6.9 L 30.6 5.5 L 33.4 5.5 L 34.7 6.9 L 35.8 8.4 L 36.8 9.8 L 37.4 11.4 L 37.7 13.2 L 37.7 15.3 L 37.3 17.7 L 36.5 20.6 L 35.4 23.9 L 34.0 27.9 Z" fill="url(#pcV)" opacity="0.12"/><path d="M30.5 30 Q 32 38 33.5 30 Z" fill="#f3da90" opacity="0.5"/><g transform="translate(0.8 0.9)" opacity="0.24"><path d="M31.6 30.9 Q 32.1 29.1 30.0 27.9 Q 31.7 29.4 32.4 30.3 Z" fill="#1d1338"/><path d="M31.6 30.3 Q 34.1 29.4 34.0 27.9 Q 33.7 29.1 32.4 30.9 Z" fill="#1d1338"/><path d="M31.5 28.6 Q 31.4 25.9 28.6 23.9 Q 31.0 26.2 32.5 27.7 Z" fill="#1d1338"/><path d="M31.5 27.7 Q 34.8 26.2 35.4 23.9 Q 34.4 25.9 32.5 28.6 Z" fill="#1d1338"/><path d="M31.4 26.3 Q 30.9 22.9 27.5 20.6 Q 30.4 23.4 32.6 25.2 Z" fill="#1d1338"/><path d="M31.4 25.2 Q 35.4 23.4 36.5 20.6 Q 34.9 22.9 32.6 26.3 Z" fill="#1d1338"/><path d="M31.3 24.0 Q 30.6 20.2 26.7 17.7 Q 30.0 20.8 32.7 22.7 Z" fill="#1d1338"/><path d="M31.3 22.7 Q 35.8 20.8 37.3 17.7 Q 35.2 20.2 32.7 24.0 Z" fill="#1d1338"/><path d="M31.2 21.7 Q 30.4 17.8 26.3 15.3 Q 29.8 18.4 32.8 20.2 Z" fill="#1d1338"/><path d="M31.2 20.2 Q 36.0 18.4 37.7 15.3 Q 35.4 17.8 32.8 21.7 Z" fill="#1d1338"/><path d="M31.3 19.3 Q 30.4 15.5 26.3 13.2 Q 29.8 16.2 32.7 17.7 Z" fill="#1d1338"/><path d="M31.3 17.7 Q 36.0 16.2 37.7 13.2 Q 35.4 15.5 32.7 19.3 Z" fill="#1d1338"/><path d="M31.3 16.9 Q 30.5 13.4 26.6 11.4 Q 29.9 14.1 32.7 15.3 Z" fill="#1d1338"/><path d="M31.3 15.3 Q 35.9 14.1 37.4 11.4 Q 35.3 13.4 32.7 16.9 Z" fill="#1d1338"/><path d="M31.4 14.4 Q 30.8 11.4 27.2 9.8 Q 30.3 12.0 32.6 12.9 Z" fill="#1d1338"/><path d="M31.4 12.9 Q 35.5 12.0 36.8 9.8 Q 35.0 11.4 32.6 14.4 Z" fill="#1d1338"/><path d="M31.5 11.9 Q 31.2 9.5 28.2 8.4 Q 30.8 10.1 32.5 10.6 Z" fill="#1d1338"/><path d="M31.5 10.6 Q 35.0 10.1 35.8 8.4 Q 34.6 9.5 32.5 11.9 Z" fill="#1d1338"/><path d="M31.6 9.4 Q 31.7 7.7 29.3 6.9 Q 31.4 8.1 32.4 8.3 Z" fill="#1d1338"/><path d="M31.6 8.3 Q 34.4 8.1 34.7 6.9 Q 34.1 7.7 32.4 9.4 Z" fill="#1d1338"/><path d="M31.7 6.8 Q 32.3 5.8 30.6 5.5 Q 32.1 6.1 32.3 6.0 Z" fill="#1d1338"/><path d="M31.7 6.0 Q 33.7 6.1 33.4 5.5 Q 33.5 5.8 32.3 6.8 Z" fill="#1d1338"/></g><path d="M31.6 30.9 Q 32.1 29.1 30.0 27.9 Q 31.7 29.4 32.4 30.3 Z" fill="rgb(43,65,95)" opacity="0.97"/><path d="M31.6 30.3 Q 34.1 29.4 34.0 27.9 Q 33.7 29.1 32.4 30.9 Z" fill="rgb(43,65,95)" opacity="0.97"/><path d="M31.5 28.6 Q 31.4 25.9 28.6 23.9 Q 31.0 26.2 32.5 27.7 Z" fill="rgb(42,100,114)" opacity="0.97"/><path d="M31.5 27.7 Q 34.8 26.2 35.4 23.9 Q 34.4 25.9 32.5 28.6 Z" fill="rgb(42,100,114)" opacity="0.97"/><path d="M31.4 26.3 Q 30.9 22.9 27.5 20.6 Q 30.4 23.4 32.6 25.2 Z" fill="rgb(42,136,132)" opacity="0.97"/><path d="M31.4 25.2 Q 35.4 23.4 36.5 20.6 Q 34.9 22.9 32.6 26.3 Z" fill="rgb(42,136,132)" opacity="0.97"/><path d="M31.3 24.0 Q 30.6 20.2 26.7 17.7 Q 30.0 20.8 32.7 22.7 Z" fill="rgb(49,148,145)" opacity="0.97"/><path d="M31.3 22.7 Q 35.8 20.8 37.3 17.7 Q 35.2 20.2 32.7 24.0 Z" fill="rgb(49,148,145)" opacity="0.97"/><path d="M31.2 21.7 Q 30.4 17.8 26.3 15.3 Q 29.8 18.4 32.8 20.2 Z" fill="rgb(67,127,150)" opacity="0.97"/><path d="M31.2 20.2 Q 36.0 18.4 37.7 15.3 Q 35.4 17.8 32.8 21.7 Z" fill="rgb(67,127,150)" opacity="0.97"/><path d="M31.3 19.3 Q 30.4 15.5 26.3 13.2 Q 29.8 16.2 32.7 17.7 Z" fill="rgb(85,105,154)" opacity="0.97"/><path d="M31.3 17.7 Q 36.0 16.2 37.7 13.2 Q 35.4 15.5 32.7 19.3 Z" fill="rgb(85,105,154)" opacity="0.97"/><path d="M31.3 16.9 Q 30.5 13.4 26.6 11.4 Q 29.9 14.1 32.7 15.3 Z" fill="rgb(102,83,159)" opacity="0.97"/><path d="M31.3 15.3 Q 35.9 14.1 37.4 11.4 Q 35.3 13.4 32.7 16.9 Z" fill="rgb(102,83,159)" opacity="0.97"/><path d="M31.4 14.4 Q 30.8 11.4 27.2 9.8 Q 30.3 12.0 32.6 12.9 Z" fill="rgb(129,102,157)" opacity="0.97"/><path d="M31.4 12.9 Q 35.5 12.0 36.8 9.8 Q 35.0 11.4 32.6 14.4 Z" fill="rgb(129,102,157)" opacity="0.97"/><path d="M31.5 11.9 Q 31.2 9.5 28.2 8.4 Q 30.8 10.1 32.5 10.6 Z" fill="rgb(157,131,154)" opacity="0.97"/><path d="M31.5 10.6 Q 35.0 10.1 35.8 8.4 Q 34.6 9.5 32.5 11.9 Z" fill="rgb(157,131,154)" opacity="0.97"/><path d="M31.6 9.4 Q 31.7 7.7 29.3 6.9 Q 31.4 8.1 32.4 8.3 Z" fill="rgb(186,160,151)" opacity="0.97"/><path d="M31.6 8.3 Q 34.4 8.1 34.7 6.9 Q 34.1 7.7 32.4 9.4 Z" fill="rgb(186,160,151)" opacity="0.97"/><path d="M31.7 6.8 Q 32.3 5.8 30.6 5.5 Q 32.1 6.1 32.3 6.0 Z" fill="rgb(214,189,147)" opacity="0.97"/><path d="M31.7 6.0 Q 33.7 6.1 33.4 5.5 Q 33.5 5.8 32.3 6.8 Z" fill="rgb(214,189,147)" opacity="0.97"/><path d="M32.0 25.8 L 29.7 23.2" stroke="#f6efdc" stroke-width="0.4" stroke-linecap="round" opacity="0.17"/><path d="M32.0 25.8 L 34.3 23.2" stroke="#f6efdc" stroke-width="0.4" stroke-linecap="round" opacity="0.17"/><path d="M32.0 23.3 L 29.4 20.5" stroke="#f6efdc" stroke-width="0.4" stroke-linecap="round" opacity="0.19"/><path d="M32.0 23.3 L 34.6 20.5" stroke="#f6efdc" stroke-width="0.4" stroke-linecap="round" opacity="0.19"/><path d="M32.0 20.9 L 29.2 18.1" stroke="#f6efdc" stroke-width="0.4" stroke-linecap="round" opacity="0.20"/><path d="M32.0 20.9 L 34.8 18.1" stroke="#f6efdc" stroke-width="0.4" stroke-linecap="round" opacity="0.20"/><path d="M32.0 18.5 L 29.2 15.8" stroke="#f6efdc" stroke-width="0.4" stroke-linecap="round" opacity="0.22"/><path d="M32.0 18.5 L 34.8 15.8" stroke="#f6efdc" stroke-width="0.4" stroke-linecap="round" opacity="0.22"/><path d="M32.0 16.1 L 29.3 13.7" stroke="#f6efdc" stroke-width="0.4" stroke-linecap="round" opacity="0.24"/><path d="M32.0 16.1 L 34.7 13.7" stroke="#f6efdc" stroke-width="0.4" stroke-linecap="round" opacity="0.24"/><path d="M32.0 13.7 L 29.6 11.7" stroke="#f6efdc" stroke-width="0.4" stroke-linecap="round" opacity="0.25"/><path d="M32.0 13.7 L 34.4 11.7" stroke="#f6efdc" stroke-width="0.4" stroke-linecap="round" opacity="0.25"/><path d="M32.0 11.3 L 30.1 9.8" stroke="#f6efdc" stroke-width="0.4" stroke-linecap="round" opacity="0.27"/><path d="M32.0 11.3 L 33.9 9.8" stroke="#f6efdc" stroke-width="0.4" stroke-linecap="round" opacity="0.27"/><path d="M32.0 8.8 L 30.6 7.9" stroke="#f6efdc" stroke-width="0.4" stroke-linecap="round" opacity="0.29"/><path d="M32.0 8.8 L 33.4 7.9" stroke="#f6efdc" stroke-width="0.4" stroke-linecap="round" opacity="0.29"/><path d="M32.0 6.4 L 31.3 6.0" stroke="#f6efdc" stroke-width="0.4" stroke-linecap="round" opacity="0.30"/><path d="M32.0 6.4 L 32.7 6.0" stroke="#f6efdc" stroke-width="0.4" stroke-linecap="round" opacity="0.30"/><path d="M32 33 Q 32 18.5 32 4" stroke="#f3da90" stroke-width="1.7" fill="none" stroke-linecap="round" opacity="0.95"/></g><g transform="rotate(225.00 32 32)"><path d="M 32.0 30.6 L 30.0 27.9 L 28.6 23.9 L 27.5 20.6 L 26.7 17.7 L 26.3 15.3 L 26.3 13.2 L 26.6 11.4 L 27.2 9.8 L 28.2 8.4 L 29.3 6.9 L 30.6 5.5 L 33.4 5.5 L 34.7 6.9 L 35.8 8.4 L 36.8 9.8 L 37.4 11.4 L 37.7 13.2 L 37.7 15.3 L 37.3 17.7 L 36.5 20.6 L 35.4 23.9 L 34.0 27.9 Z" fill="url(#pcV)" opacity="0.12"/><path d="M30.5 30 Q 32 38 33.5 30 Z" fill="#f3da90" opacity="0.5"/><g transform="translate(0.8 0.9)" opacity="0.24"><path d="M31.6 30.9 Q 32.1 29.1 30.0 27.9 Q 31.7 29.4 32.4 30.3 Z" fill="#1d1338"/><path d="M31.6 30.3 Q 34.1 29.4 34.0 27.9 Q 33.7 29.1 32.4 30.9 Z" fill="#1d1338"/><path d="M31.5 28.6 Q 31.4 25.9 28.6 23.9 Q 31.0 26.2 32.5 27.7 Z" fill="#1d1338"/><path d="M31.5 27.7 Q 34.8 26.2 35.4 23.9 Q 34.4 25.9 32.5 28.6 Z" fill="#1d1338"/><path d="M31.4 26.3 Q 30.9 22.9 27.5 20.6 Q 30.4 23.4 32.6 25.2 Z" fill="#1d1338"/><path d="M31.4 25.2 Q 35.4 23.4 36.5 20.6 Q 34.9 22.9 32.6 26.3 Z" fill="#1d1338"/><path d="M31.3 24.0 Q 30.6 20.2 26.7 17.7 Q 30.0 20.8 32.7 22.7 Z" fill="#1d1338"/><path d="M31.3 22.7 Q 35.8 20.8 37.3 17.7 Q 35.2 20.2 32.7 24.0 Z" fill="#1d1338"/><path d="M31.2 21.7 Q 30.4 17.8 26.3 15.3 Q 29.8 18.4 32.8 20.2 Z" fill="#1d1338"/><path d="M31.2 20.2 Q 36.0 18.4 37.7 15.3 Q 35.4 17.8 32.8 21.7 Z" fill="#1d1338"/><path d="M31.3 19.3 Q 30.4 15.5 26.3 13.2 Q 29.8 16.2 32.7 17.7 Z" fill="#1d1338"/><path d="M31.3 17.7 Q 36.0 16.2 37.7 13.2 Q 35.4 15.5 32.7 19.3 Z" fill="#1d1338"/><path d="M31.3 16.9 Q 30.5 13.4 26.6 11.4 Q 29.9 14.1 32.7 15.3 Z" fill="#1d1338"/><path d="M31.3 15.3 Q 35.9 14.1 37.4 11.4 Q 35.3 13.4 32.7 16.9 Z" fill="#1d1338"/><path d="M31.4 14.4 Q 30.8 11.4 27.2 9.8 Q 30.3 12.0 32.6 12.9 Z" fill="#1d1338"/><path d="M31.4 12.9 Q 35.5 12.0 36.8 9.8 Q 35.0 11.4 32.6 14.4 Z" fill="#1d1338"/><path d="M31.5 11.9 Q 31.2 9.5 28.2 8.4 Q 30.8 10.1 32.5 10.6 Z" fill="#1d1338"/><path d="M31.5 10.6 Q 35.0 10.1 35.8 8.4 Q 34.6 9.5 32.5 11.9 Z" fill="#1d1338"/><path d="M31.6 9.4 Q 31.7 7.7 29.3 6.9 Q 31.4 8.1 32.4 8.3 Z" fill="#1d1338"/><path d="M31.6 8.3 Q 34.4 8.1 34.7 6.9 Q 34.1 7.7 32.4 9.4 Z" fill="#1d1338"/><path d="M31.7 6.8 Q 32.3 5.8 30.6 5.5 Q 32.1 6.1 32.3 6.0 Z" fill="#1d1338"/><path d="M31.7 6.0 Q 33.7 6.1 33.4 5.5 Q 33.5 5.8 32.3 6.8 Z" fill="#1d1338"/></g><path d="M31.6 30.9 Q 32.1 29.1 30.0 27.9 Q 31.7 29.4 32.4 30.3 Z" fill="rgb(43,65,95)" opacity="0.97"/><path d="M31.6 30.3 Q 34.1 29.4 34.0 27.9 Q 33.7 29.1 32.4 30.9 Z" fill="rgb(43,65,95)" opacity="0.97"/><path d="M31.5 28.6 Q 31.4 25.9 28.6 23.9 Q 31.0 26.2 32.5 27.7 Z" fill="rgb(42,100,114)" opacity="0.97"/><path d="M31.5 27.7 Q 34.8 26.2 35.4 23.9 Q 34.4 25.9 32.5 28.6 Z" fill="rgb(42,100,114)" opacity="0.97"/><path d="M31.4 26.3 Q 30.9 22.9 27.5 20.6 Q 30.4 23.4 32.6 25.2 Z" fill="rgb(42,136,132)" opacity="0.97"/><path d="M31.4 25.2 Q 35.4 23.4 36.5 20.6 Q 34.9 22.9 32.6 26.3 Z" fill="rgb(42,136,132)" opacity="0.97"/><path d="M31.3 24.0 Q 30.6 20.2 26.7 17.7 Q 30.0 20.8 32.7 22.7 Z" fill="rgb(49,148,145)" opacity="0.97"/><path d="M31.3 22.7 Q 35.8 20.8 37.3 17.7 Q 35.2 20.2 32.7 24.0 Z" fill="rgb(49,148,145)" opacity="0.97"/><path d="M31.2 21.7 Q 30.4 17.8 26.3 15.3 Q 29.8 18.4 32.8 20.2 Z" fill="rgb(67,127,150)" opacity="0.97"/><path d="M31.2 20.2 Q 36.0 18.4 37.7 15.3 Q 35.4 17.8 32.8 21.7 Z" fill="rgb(67,127,150)" opacity="0.97"/><path d="M31.3 19.3 Q 30.4 15.5 26.3 13.2 Q 29.8 16.2 32.7 17.7 Z" fill="rgb(85,105,154)" opacity="0.97"/><path d="M31.3 17.7 Q 36.0 16.2 37.7 13.2 Q 35.4 15.5 32.7 19.3 Z" fill="rgb(85,105,154)" opacity="0.97"/><path d="M31.3 16.9 Q 30.5 13.4 26.6 11.4 Q 29.9 14.1 32.7 15.3 Z" fill="rgb(102,83,159)" opacity="0.97"/><path d="M31.3 15.3 Q 35.9 14.1 37.4 11.4 Q 35.3 13.4 32.7 16.9 Z" fill="rgb(102,83,159)" opacity="0.97"/><path d="M31.4 14.4 Q 30.8 11.4 27.2 9.8 Q 30.3 12.0 32.6 12.9 Z" fill="rgb(129,102,157)" opacity="0.97"/><path d="M31.4 12.9 Q 35.5 12.0 36.8 9.8 Q 35.0 11.4 32.6 14.4 Z" fill="rgb(129,102,157)" opacity="0.97"/><path d="M31.5 11.9 Q 31.2 9.5 28.2 8.4 Q 30.8 10.1 32.5 10.6 Z" fill="rgb(157,131,154)" opacity="0.97"/><path d="M31.5 10.6 Q 35.0 10.1 35.8 8.4 Q 34.6 9.5 32.5 11.9 Z" fill="rgb(157,131,154)" opacity="0.97"/><path d="M31.6 9.4 Q 31.7 7.7 29.3 6.9 Q 31.4 8.1 32.4 8.3 Z" fill="rgb(186,160,151)" opacity="0.97"/><path d="M31.6 8.3 Q 34.4 8.1 34.7 6.9 Q 34.1 7.7 32.4 9.4 Z" fill="rgb(186,160,151)" opacity="0.97"/><path d="M31.7 6.8 Q 32.3 5.8 30.6 5.5 Q 32.1 6.1 32.3 6.0 Z" fill="rgb(214,189,147)" opacity="0.97"/><path d="M31.7 6.0 Q 33.7 6.1 33.4 5.5 Q 33.5 5.8 32.3 6.8 Z" fill="rgb(214,189,147)" opacity="0.97"/><path d="M32.0 25.8 L 29.7 23.2" stroke="#f6efdc" stroke-width="0.4" stroke-linecap="round" opacity="0.17"/><path d="M32.0 25.8 L 34.3 23.2" stroke="#f6efdc" stroke-width="0.4" stroke-linecap="round" opacity="0.17"/><path d="M32.0 23.3 L 29.4 20.5" stroke="#f6efdc" stroke-width="0.4" stroke-linecap="round" opacity="0.19"/><path d="M32.0 23.3 L 34.6 20.5" stroke="#f6efdc" stroke-width="0.4" stroke-linecap="round" opacity="0.19"/><path d="M32.0 20.9 L 29.2 18.1" stroke="#f6efdc" stroke-width="0.4" stroke-linecap="round" opacity="0.20"/><path d="M32.0 20.9 L 34.8 18.1" stroke="#f6efdc" stroke-width="0.4" stroke-linecap="round" opacity="0.20"/><path d="M32.0 18.5 L 29.2 15.8" stroke="#f6efdc" stroke-width="0.4" stroke-linecap="round" opacity="0.22"/><path d="M32.0 18.5 L 34.8 15.8" stroke="#f6efdc" stroke-width="0.4" stroke-linecap="round" opacity="0.22"/><path d="M32.0 16.1 L 29.3 13.7" stroke="#f6efdc" stroke-width="0.4" stroke-linecap="round" opacity="0.24"/><path d="M32.0 16.1 L 34.7 13.7" stroke="#f6efdc" stroke-width="0.4" stroke-linecap="round" opacity="0.24"/><path d="M32.0 13.7 L 29.6 11.7" stroke="#f6efdc" stroke-width="0.4" stroke-linecap="round" opacity="0.25"/><path d="M32.0 13.7 L 34.4 11.7" stroke="#f6efdc" stroke-width="0.4" stroke-linecap="round" opacity="0.25"/><path d="M32.0 11.3 L 30.1 9.8" stroke="#f6efdc" stroke-width="0.4" stroke-linecap="round" opacity="0.27"/><path d="M32.0 11.3 L 33.9 9.8" stroke="#f6efdc" stroke-width="0.4" stroke-linecap="round" opacity="0.27"/><path d="M32.0 8.8 L 30.6 7.9" stroke="#f6efdc" stroke-width="0.4" stroke-linecap="round" opacity="0.29"/><path d="M32.0 8.8 L 33.4 7.9" stroke="#f6efdc" stroke-width="0.4" stroke-linecap="round" opacity="0.29"/><path d="M32.0 6.4 L 31.3 6.0" stroke="#f6efdc" stroke-width="0.4" stroke-linecap="round" opacity="0.30"/><path d="M32.0 6.4 L 32.7 6.0" stroke="#f6efdc" stroke-width="0.4" stroke-linecap="round" opacity="0.30"/><path d="M32 33 Q 32 18.5 32 4" stroke="#f3da90" stroke-width="1.7" fill="none" stroke-linecap="round" opacity="0.95"/></g><g transform="rotate(270.00 32 32)"><path d="M 32.0 30.6 L 30.0 27.9 L 28.6 23.9 L 27.5 20.6 L 26.7 17.7 L 26.3 15.3 L 26.3 13.2 L 26.6 11.4 L 27.2 9.8 L 28.2 8.4 L 29.3 6.9 L 30.6 5.5 L 33.4 5.5 L 34.7 6.9 L 35.8 8.4 L 36.8 9.8 L 37.4 11.4 L 37.7 13.2 L 37.7 15.3 L 37.3 17.7 L 36.5 20.6 L 35.4 23.9 L 34.0 27.9 Z" fill="url(#pcV)" opacity="0.12"/><path d="M30.5 30 Q 32 38 33.5 30 Z" fill="#f3da90" opacity="0.5"/><g transform="translate(0.8 0.9)" opacity="0.24"><path d="M31.6 30.9 Q 32.1 29.1 30.0 27.9 Q 31.7 29.4 32.4 30.3 Z" fill="#1d1338"/><path d="M31.6 30.3 Q 34.1 29.4 34.0 27.9 Q 33.7 29.1 32.4 30.9 Z" fill="#1d1338"/><path d="M31.5 28.6 Q 31.4 25.9 28.6 23.9 Q 31.0 26.2 32.5 27.7 Z" fill="#1d1338"/><path d="M31.5 27.7 Q 34.8 26.2 35.4 23.9 Q 34.4 25.9 32.5 28.6 Z" fill="#1d1338"/><path d="M31.4 26.3 Q 30.9 22.9 27.5 20.6 Q 30.4 23.4 32.6 25.2 Z" fill="#1d1338"/><path d="M31.4 25.2 Q 35.4 23.4 36.5 20.6 Q 34.9 22.9 32.6 26.3 Z" fill="#1d1338"/><path d="M31.3 24.0 Q 30.6 20.2 26.7 17.7 Q 30.0 20.8 32.7 22.7 Z" fill="#1d1338"/><path d="M31.3 22.7 Q 35.8 20.8 37.3 17.7 Q 35.2 20.2 32.7 24.0 Z" fill="#1d1338"/><path d="M31.2 21.7 Q 30.4 17.8 26.3 15.3 Q 29.8 18.4 32.8 20.2 Z" fill="#1d1338"/><path d="M31.2 20.2 Q 36.0 18.4 37.7 15.3 Q 35.4 17.8 32.8 21.7 Z" fill="#1d1338"/><path d="M31.3 19.3 Q 30.4 15.5 26.3 13.2 Q 29.8 16.2 32.7 17.7 Z" fill="#1d1338"/><path d="M31.3 17.7 Q 36.0 16.2 37.7 13.2 Q 35.4 15.5 32.7 19.3 Z" fill="#1d1338"/><path d="M31.3 16.9 Q 30.5 13.4 26.6 11.4 Q 29.9 14.1 32.7 15.3 Z" fill="#1d1338"/><path d="M31.3 15.3 Q 35.9 14.1 37.4 11.4 Q 35.3 13.4 32.7 16.9 Z" fill="#1d1338"/><path d="M31.4 14.4 Q 30.8 11.4 27.2 9.8 Q 30.3 12.0 32.6 12.9 Z" fill="#1d1338"/><path d="M31.4 12.9 Q 35.5 12.0 36.8 9.8 Q 35.0 11.4 32.6 14.4 Z" fill="#1d1338"/><path d="M31.5 11.9 Q 31.2 9.5 28.2 8.4 Q 30.8 10.1 32.5 10.6 Z" fill="#1d1338"/><path d="M31.5 10.6 Q 35.0 10.1 35.8 8.4 Q 34.6 9.5 32.5 11.9 Z" fill="#1d1338"/><path d="M31.6 9.4 Q 31.7 7.7 29.3 6.9 Q 31.4 8.1 32.4 8.3 Z" fill="#1d1338"/><path d="M31.6 8.3 Q 34.4 8.1 34.7 6.9 Q 34.1 7.7 32.4 9.4 Z" fill="#1d1338"/><path d="M31.7 6.8 Q 32.3 5.8 30.6 5.5 Q 32.1 6.1 32.3 6.0 Z" fill="#1d1338"/><path d="M31.7 6.0 Q 33.7 6.1 33.4 5.5 Q 33.5 5.8 32.3 6.8 Z" fill="#1d1338"/></g><path d="M31.6 30.9 Q 32.1 29.1 30.0 27.9 Q 31.7 29.4 32.4 30.3 Z" fill="rgb(43,65,95)" opacity="0.97"/><path d="M31.6 30.3 Q 34.1 29.4 34.0 27.9 Q 33.7 29.1 32.4 30.9 Z" fill="rgb(43,65,95)" opacity="0.97"/><path d="M31.5 28.6 Q 31.4 25.9 28.6 23.9 Q 31.0 26.2 32.5 27.7 Z" fill="rgb(42,100,114)" opacity="0.97"/><path d="M31.5 27.7 Q 34.8 26.2 35.4 23.9 Q 34.4 25.9 32.5 28.6 Z" fill="rgb(42,100,114)" opacity="0.97"/><path d="M31.4 26.3 Q 30.9 22.9 27.5 20.6 Q 30.4 23.4 32.6 25.2 Z" fill="rgb(42,136,132)" opacity="0.97"/><path d="M31.4 25.2 Q 35.4 23.4 36.5 20.6 Q 34.9 22.9 32.6 26.3 Z" fill="rgb(42,136,132)" opacity="0.97"/><path d="M31.3 24.0 Q 30.6 20.2 26.7 17.7 Q 30.0 20.8 32.7 22.7 Z" fill="rgb(49,148,145)" opacity="0.97"/><path d="M31.3 22.7 Q 35.8 20.8 37.3 17.7 Q 35.2 20.2 32.7 24.0 Z" fill="rgb(49,148,145)" opacity="0.97"/><path d="M31.2 21.7 Q 30.4 17.8 26.3 15.3 Q 29.8 18.4 32.8 20.2 Z" fill="rgb(67,127,150)" opacity="0.97"/><path d="M31.2 20.2 Q 36.0 18.4 37.7 15.3 Q 35.4 17.8 32.8 21.7 Z" fill="rgb(67,127,150)" opacity="0.97"/><path d="M31.3 19.3 Q 30.4 15.5 26.3 13.2 Q 29.8 16.2 32.7 17.7 Z" fill="rgb(85,105,154)" opacity="0.97"/><path d="M31.3 17.7 Q 36.0 16.2 37.7 13.2 Q 35.4 15.5 32.7 19.3 Z" fill="rgb(85,105,154)" opacity="0.97"/><path d="M31.3 16.9 Q 30.5 13.4 26.6 11.4 Q 29.9 14.1 32.7 15.3 Z" fill="rgb(102,83,159)" opacity="0.97"/><path d="M31.3 15.3 Q 35.9 14.1 37.4 11.4 Q 35.3 13.4 32.7 16.9 Z" fill="rgb(102,83,159)" opacity="0.97"/><path d="M31.4 14.4 Q 30.8 11.4 27.2 9.8 Q 30.3 12.0 32.6 12.9 Z" fill="rgb(129,102,157)" opacity="0.97"/><path d="M31.4 12.9 Q 35.5 12.0 36.8 9.8 Q 35.0 11.4 32.6 14.4 Z" fill="rgb(129,102,157)" opacity="0.97"/><path d="M31.5 11.9 Q 31.2 9.5 28.2 8.4 Q 30.8 10.1 32.5 10.6 Z" fill="rgb(157,131,154)" opacity="0.97"/><path d="M31.5 10.6 Q 35.0 10.1 35.8 8.4 Q 34.6 9.5 32.5 11.9 Z" fill="rgb(157,131,154)" opacity="0.97"/><path d="M31.6 9.4 Q 31.7 7.7 29.3 6.9 Q 31.4 8.1 32.4 8.3 Z" fill="rgb(186,160,151)" opacity="0.97"/><path d="M31.6 8.3 Q 34.4 8.1 34.7 6.9 Q 34.1 7.7 32.4 9.4 Z" fill="rgb(186,160,151)" opacity="0.97"/><path d="M31.7 6.8 Q 32.3 5.8 30.6 5.5 Q 32.1 6.1 32.3 6.0 Z" fill="rgb(214,189,147)" opacity="0.97"/><path d="M31.7 6.0 Q 33.7 6.1 33.4 5.5 Q 33.5 5.8 32.3 6.8 Z" fill="rgb(214,189,147)" opacity="0.97"/><path d="M32.0 25.8 L 29.7 23.2" stroke="#f6efdc" stroke-width="0.4" stroke-linecap="round" opacity="0.17"/><path d="M32.0 25.8 L 34.3 23.2" stroke="#f6efdc" stroke-width="0.4" stroke-linecap="round" opacity="0.17"/><path d="M32.0 23.3 L 29.4 20.5" stroke="#f6efdc" stroke-width="0.4" stroke-linecap="round" opacity="0.19"/><path d="M32.0 23.3 L 34.6 20.5" stroke="#f6efdc" stroke-width="0.4" stroke-linecap="round" opacity="0.19"/><path d="M32.0 20.9 L 29.2 18.1" stroke="#f6efdc" stroke-width="0.4" stroke-linecap="round" opacity="0.20"/><path d="M32.0 20.9 L 34.8 18.1" stroke="#f6efdc" stroke-width="0.4" stroke-linecap="round" opacity="0.20"/><path d="M32.0 18.5 L 29.2 15.8" stroke="#f6efdc" stroke-width="0.4" stroke-linecap="round" opacity="0.22"/><path d="M32.0 18.5 L 34.8 15.8" stroke="#f6efdc" stroke-width="0.4" stroke-linecap="round" opacity="0.22"/><path d="M32.0 16.1 L 29.3 13.7" stroke="#f6efdc" stroke-width="0.4" stroke-linecap="round" opacity="0.24"/><path d="M32.0 16.1 L 34.7 13.7" stroke="#f6efdc" stroke-width="0.4" stroke-linecap="round" opacity="0.24"/><path d="M32.0 13.7 L 29.6 11.7" stroke="#f6efdc" stroke-width="0.4" stroke-linecap="round" opacity="0.25"/><path d="M32.0 13.7 L 34.4 11.7" stroke="#f6efdc" stroke-width="0.4" stroke-linecap="round" opacity="0.25"/><path d="M32.0 11.3 L 30.1 9.8" stroke="#f6efdc" stroke-width="0.4" stroke-linecap="round" opacity="0.27"/><path d="M32.0 11.3 L 33.9 9.8" stroke="#f6efdc" stroke-width="0.4" stroke-linecap="round" opacity="0.27"/><path d="M32.0 8.8 L 30.6 7.9" stroke="#f6efdc" stroke-width="0.4" stroke-linecap="round" opacity="0.29"/><path d="M32.0 8.8 L 33.4 7.9" stroke="#f6efdc" stroke-width="0.4" stroke-linecap="round" opacity="0.29"/><path d="M32.0 6.4 L 31.3 6.0" stroke="#f6efdc" stroke-width="0.4" stroke-linecap="round" opacity="0.30"/><path d="M32.0 6.4 L 32.7 6.0" stroke="#f6efdc" stroke-width="0.4" stroke-linecap="round" opacity="0.30"/><path d="M32 33 Q 32 18.5 32 4" stroke="#f3da90" stroke-width="1.7" fill="none" stroke-linecap="round" opacity="0.95"/></g><g transform="rotate(315.00 32 32)"><path d="M 32.0 30.6 L 30.0 27.9 L 28.6 23.9 L 27.5 20.6 L 26.7 17.7 L 26.3 15.3 L 26.3 13.2 L 26.6 11.4 L 27.2 9.8 L 28.2 8.4 L 29.3 6.9 L 30.6 5.5 L 33.4 5.5 L 34.7 6.9 L 35.8 8.4 L 36.8 9.8 L 37.4 11.4 L 37.7 13.2 L 37.7 15.3 L 37.3 17.7 L 36.5 20.6 L 35.4 23.9 L 34.0 27.9 Z" fill="url(#pcV)" opacity="0.12"/><path d="M30.5 30 Q 32 38 33.5 30 Z" fill="#f3da90" opacity="0.5"/><g transform="translate(0.8 0.9)" opacity="0.24"><path d="M31.6 30.9 Q 32.1 29.1 30.0 27.9 Q 31.7 29.4 32.4 30.3 Z" fill="#1d1338"/><path d="M31.6 30.3 Q 34.1 29.4 34.0 27.9 Q 33.7 29.1 32.4 30.9 Z" fill="#1d1338"/><path d="M31.5 28.6 Q 31.4 25.9 28.6 23.9 Q 31.0 26.2 32.5 27.7 Z" fill="#1d1338"/><path d="M31.5 27.7 Q 34.8 26.2 35.4 23.9 Q 34.4 25.9 32.5 28.6 Z" fill="#1d1338"/><path d="M31.4 26.3 Q 30.9 22.9 27.5 20.6 Q 30.4 23.4 32.6 25.2 Z" fill="#1d1338"/><path d="M31.4 25.2 Q 35.4 23.4 36.5 20.6 Q 34.9 22.9 32.6 26.3 Z" fill="#1d1338"/><path d="M31.3 24.0 Q 30.6 20.2 26.7 17.7 Q 30.0 20.8 32.7 22.7 Z" fill="#1d1338"/><path d="M31.3 22.7 Q 35.8 20.8 37.3 17.7 Q 35.2 20.2 32.7 24.0 Z" fill="#1d1338"/><path d="M31.2 21.7 Q 30.4 17.8 26.3 15.3 Q 29.8 18.4 32.8 20.2 Z" fill="#1d1338"/><path d="M31.2 20.2 Q 36.0 18.4 37.7 15.3 Q 35.4 17.8 32.8 21.7 Z" fill="#1d1338"/><path d="M31.3 19.3 Q 30.4 15.5 26.3 13.2 Q 29.8 16.2 32.7 17.7 Z" fill="#1d1338"/><path d="M31.3 17.7 Q 36.0 16.2 37.7 13.2 Q 35.4 15.5 32.7 19.3 Z" fill="#1d1338"/><path d="M31.3 16.9 Q 30.5 13.4 26.6 11.4 Q 29.9 14.1 32.7 15.3 Z" fill="#1d1338"/><path d="M31.3 15.3 Q 35.9 14.1 37.4 11.4 Q 35.3 13.4 32.7 16.9 Z" fill="#1d1338"/><path d="M31.4 14.4 Q 30.8 11.4 27.2 9.8 Q 30.3 12.0 32.6 12.9 Z" fill="#1d1338"/><path d="M31.4 12.9 Q 35.5 12.0 36.8 9.8 Q 35.0 11.4 32.6 14.4 Z" fill="#1d1338"/><path d="M31.5 11.9 Q 31.2 9.5 28.2 8.4 Q 30.8 10.1 32.5 10.6 Z" fill="#1d1338"/><path d="M31.5 10.6 Q 35.0 10.1 35.8 8.4 Q 34.6 9.5 32.5 11.9 Z" fill="#1d1338"/><path d="M31.6 9.4 Q 31.7 7.7 29.3 6.9 Q 31.4 8.1 32.4 8.3 Z" fill="#1d1338"/><path d="M31.6 8.3 Q 34.4 8.1 34.7 6.9 Q 34.1 7.7 32.4 9.4 Z" fill="#1d1338"/><path d="M31.7 6.8 Q 32.3 5.8 30.6 5.5 Q 32.1 6.1 32.3 6.0 Z" fill="#1d1338"/><path d="M31.7 6.0 Q 33.7 6.1 33.4 5.5 Q 33.5 5.8 32.3 6.8 Z" fill="#1d1338"/></g><path d="M31.6 30.9 Q 32.1 29.1 30.0 27.9 Q 31.7 29.4 32.4 30.3 Z" fill="rgb(43,65,95)" opacity="0.97"/><path d="M31.6 30.3 Q 34.1 29.4 34.0 27.9 Q 33.7 29.1 32.4 30.9 Z" fill="rgb(43,65,95)" opacity="0.97"/><path d="M31.5 28.6 Q 31.4 25.9 28.6 23.9 Q 31.0 26.2 32.5 27.7 Z" fill="rgb(42,100,114)" opacity="0.97"/><path d="M31.5 27.7 Q 34.8 26.2 35.4 23.9 Q 34.4 25.9 32.5 28.6 Z" fill="rgb(42,100,114)" opacity="0.97"/><path d="M31.4 26.3 Q 30.9 22.9 27.5 20.6 Q 30.4 23.4 32.6 25.2 Z" fill="rgb(42,136,132)" opacity="0.97"/><path d="M31.4 25.2 Q 35.4 23.4 36.5 20.6 Q 34.9 22.9 32.6 26.3 Z" fill="rgb(42,136,132)" opacity="0.97"/><path d="M31.3 24.0 Q 30.6 20.2 26.7 17.7 Q 30.0 20.8 32.7 22.7 Z" fill="rgb(49,148,145)" opacity="0.97"/><path d="M31.3 22.7 Q 35.8 20.8 37.3 17.7 Q 35.2 20.2 32.7 24.0 Z" fill="rgb(49,148,145)" opacity="0.97"/><path d="M31.2 21.7 Q 30.4 17.8 26.3 15.3 Q 29.8 18.4 32.8 20.2 Z" fill="rgb(67,127,150)" opacity="0.97"/><path d="M31.2 20.2 Q 36.0 18.4 37.7 15.3 Q 35.4 17.8 32.8 21.7 Z" fill="rgb(67,127,150)" opacity="0.97"/><path d="M31.3 19.3 Q 30.4 15.5 26.3 13.2 Q 29.8 16.2 32.7 17.7 Z" fill="rgb(85,105,154)" opacity="0.97"/><path d="M31.3 17.7 Q 36.0 16.2 37.7 13.2 Q 35.4 15.5 32.7 19.3 Z" fill="rgb(85,105,154)" opacity="0.97"/><path d="M31.3 16.9 Q 30.5 13.4 26.6 11.4 Q 29.9 14.1 32.7 15.3 Z" fill="rgb(102,83,159)" opacity="0.97"/><path d="M31.3 15.3 Q 35.9 14.1 37.4 11.4 Q 35.3 13.4 32.7 16.9 Z" fill="rgb(102,83,159)" opacity="0.97"/><path d="M31.4 14.4 Q 30.8 11.4 27.2 9.8 Q 30.3 12.0 32.6 12.9 Z" fill="rgb(129,102,157)" opacity="0.97"/><path d="M31.4 12.9 Q 35.5 12.0 36.8 9.8 Q 35.0 11.4 32.6 14.4 Z" fill="rgb(129,102,157)" opacity="0.97"/><path d="M31.5 11.9 Q 31.2 9.5 28.2 8.4 Q 30.8 10.1 32.5 10.6 Z" fill="rgb(157,131,154)" opacity="0.97"/><path d="M31.5 10.6 Q 35.0 10.1 35.8 8.4 Q 34.6 9.5 32.5 11.9 Z" fill="rgb(157,131,154)" opacity="0.97"/><path d="M31.6 9.4 Q 31.7 7.7 29.3 6.9 Q 31.4 8.1 32.4 8.3 Z" fill="rgb(186,160,151)" opacity="0.97"/><path d="M31.6 8.3 Q 34.4 8.1 34.7 6.9 Q 34.1 7.7 32.4 9.4 Z" fill="rgb(186,160,151)" opacity="0.97"/><path d="M31.7 6.8 Q 32.3 5.8 30.6 5.5 Q 32.1 6.1 32.3 6.0 Z" fill="rgb(214,189,147)" opacity="0.97"/><path d="M31.7 6.0 Q 33.7 6.1 33.4 5.5 Q 33.5 5.8 32.3 6.8 Z" fill="rgb(214,189,147)" opacity="0.97"/><path d="M32.0 25.8 L 29.7 23.2" stroke="#f6efdc" stroke-width="0.4" stroke-linecap="round" opacity="0.17"/><path d="M32.0 25.8 L 34.3 23.2" stroke="#f6efdc" stroke-width="0.4" stroke-linecap="round" opacity="0.17"/><path d="M32.0 23.3 L 29.4 20.5" stroke="#f6efdc" stroke-width="0.4" stroke-linecap="round" opacity="0.19"/><path d="M32.0 23.3 L 34.6 20.5" stroke="#f6efdc" stroke-width="0.4" stroke-linecap="round" opacity="0.19"/><path d="M32.0 20.9 L 29.2 18.1" stroke="#f6efdc" stroke-width="0.4" stroke-linecap="round" opacity="0.20"/><path d="M32.0 20.9 L 34.8 18.1" stroke="#f6efdc" stroke-width="0.4" stroke-linecap="round" opacity="0.20"/><path d="M32.0 18.5 L 29.2 15.8" stroke="#f6efdc" stroke-width="0.4" stroke-linecap="round" opacity="0.22"/><path d="M32.0 18.5 L 34.8 15.8" stroke="#f6efdc" stroke-width="0.4" stroke-linecap="round" opacity="0.22"/><path d="M32.0 16.1 L 29.3 13.7" stroke="#f6efdc" stroke-width="0.4" stroke-linecap="round" opacity="0.24"/><path d="M32.0 16.1 L 34.7 13.7" stroke="#f6efdc" stroke-width="0.4" stroke-linecap="round" opacity="0.24"/><path d="M32.0 13.7 L 29.6 11.7" stroke="#f6efdc" stroke-width="0.4" stroke-linecap="round" opacity="0.25"/><path d="M32.0 13.7 L 34.4 11.7" stroke="#f6efdc" stroke-width="0.4" stroke-linecap="round" opacity="0.25"/><path d="M32.0 11.3 L 30.1 9.8" stroke="#f6efdc" stroke-width="0.4" stroke-linecap="round" opacity="0.27"/><path d="M32.0 11.3 L 33.9 9.8" stroke="#f6efdc" stroke-width="0.4" stroke-linecap="round" opacity="0.27"/><path d="M32.0 8.8 L 30.6 7.9" stroke="#f6efdc" stroke-width="0.4" stroke-linecap="round" opacity="0.29"/><path d="M32.0 8.8 L 33.4 7.9" stroke="#f6efdc" stroke-width="0.4" stroke-linecap="round" opacity="0.29"/><path d="M32.0 6.4 L 31.3 6.0" stroke="#f6efdc" stroke-width="0.4" stroke-linecap="round" opacity="0.30"/><path d="M32.0 6.4 L 32.7 6.0" stroke="#f6efdc" stroke-width="0.4" stroke-linecap="round" opacity="0.30"/><path d="M32 33 Q 32 18.5 32 4" stroke="#f3da90" stroke-width="1.7" fill="none" stroke-linecap="round" opacity="0.95"/></g><ellipse cx="32" cy="32" rx="5.2" ry="5.2" fill="#2b1d4d"/><circle cx="32" cy="32" r="5.2" fill="none" stroke="#2a9d8f" stroke-width="1.8"/><circle cx="32" cy="32" r="2.6" fill="#f3da90"/><circle cx="32" cy="32" r="0.95" fill="#1d1338"/></g>
</svg>
