<svg xmlns="http://www.w3.org/2000/svg" viewBox="0 0 64 64">
  <g transform="translate(32 32) scale(1.05) translate(-32 -32)"><g transform="rotate(0.00 32 32)"><path d="M31.6 30.9 Q 32.1 29.1 30.0 27.9 Q 31.7 29.4 32.4 30.3 Z" fill="#ffffff"/><path d="M31.6 30.3 Q 34.1 29.4 34.0 27.9 Q 33.7 29.1 32.4 30.9 Z" fill="#ffffff"/><path d="M31.5 28.6 Q 31.4 25.9 28.6 23.9 Q 31.0 26.2 32.5 27.7 Z" fill="#ffffff"/><path d="M31.5 27.7 Q 34.8 26.2 35.4 23.9 Q 34.4 25.9 32.5 28.6 Z" fill="#ffffff"/><path d="M31.4 26.3 Q 30.9 22.9 27.5 20.6 Q 30.4 23.4 32.6 25.2 Z" fill="#ffffff"/><path d="M31.4 25.2 Q 35.4 23.4 36.5 20.6 Q 34.9 22.9 32.6 26.3 Z" fill="#ffffff"/><path d="M31.3 24.0 Q 30.6 20.2 26.7 17.7 Q 30.0 20.8 32.7 22.7 Z" fill="#ffffff"/><path d="M31.3 22.7 Q 35.8 20.8 37.3 17.7 Q 35.2 20.2 32.7 24.0 Z" fill="#ffffff"/><path d="M31.2 21.7 Q 30.4 17.8 26.3 15.3 Q 29.8 18.4 32.8 20.2 Z" fill="#ffffff"/><path d="M31.2 20.2 Q 36.0 18.4 37.7 15.3 Q 35.4 17.8 32.8 21.7 Z" fill="#ffffff"/><path d="M31.3 19.3 Q 30.4 15.5 26.3 13.2 Q 29.8 16.2 32.7 17.7 Z" fill="#ffffff"/><path d="M31.3 17.7 Q 36.0 16.2 37.7 13.2 Q 35.4 15.5 32.7 19.3 Z" fill="#ffffff"/><path d="M31.3 16.9 Q 30.5 13.4 26.6 11.4 Q 29.9 14.1 32.7 15.3 Z" fill="#ffffff"/><path d="M31.3 15.3 Q 35.9 14.1 37.4 11.4 Q 35.3 13.4 32.7 16.9 Z" fill="#ffffff"/><path d="M31.4 14.4 Q 30.8 11.4 27.2 9.8 Q 30.3 12.0 32.6 12.9 Z" fill="#ffffff"/><path d="M31.4 12.9 Q 35.5 12.0 36.8 9.8 Q 35.0 11.4 32.6 14.4 Z" fill="#ffffff"/><path d="M31.5 11.9 Q 31.2 9.5 28.2 8.4 Q 30.8 10.1 32.5 10.6 Z" fill="#ffffff"/><path d="M31.5 10.6 Q 35.0 10.1 35.8 8.4 Q 34.6 9.5 32.5 11.9 Z" fill="#ffffff"/><path d="M31.6 9.4 Q 31.7 7.7 29.3 6.9 Q 31.4 8.1 32.4 8.3 Z" fill="#ffffff"/><path d="M31.6 8.3 Q 34.4 8.1 34.7 6.9 Q 34.1 7.7 32.4 9.4 Z" fill="#ffffff"/><path d="M31.7 6.8 Q 32.3 5.8 30.6 5.5 Q 32.1 6.1 32.3 6.0 Z" fill="#ffffff"/><path d="M31.7 6.0 Q 33.7 6.1 33.4 5.5 Q 33.5 5.8 32.3 6.8 Z" fill="#ffffff"/><path d="M32 33 Q 32 18.5 32 4" stroke="#ffffff" stroke-width="1.7" fill="none" stroke-linecap="round"/></g><g transform="rotate(45.00 32 32)"><path d="M31.6 30.9 Q 32.1 29.1 30.0 27.9 Q 31.7 29.4 32.4 30.3 Z" fill="#ffffff"/><path d="M31.6 30.3 Q 34.1 29.4 34.0 27.9 Q 33.7 29.1 32.4 30.9 Z" fill="#ffffff"/><path d="M31.5 28.6 Q 31.4 25.9 28.6 23.9 Q 31.0 26.2 32.5 27.7 Z" fill="#ffffff"/><path d="M31.5 27.7 Q 34.8 26.2 35.4 23.9 Q 34.4 25.9 32.5 28.6 Z" fill="#ffffff"/><path d="M31.4 26.3 Q 30.9 22.9 27.5 20.6 Q 30.4 23.4 32.6 25.2 Z" fill="#ffffff"/><path d="M31.4 25.2 Q 35.4 23.4 36.5 20.6 Q 34.9 22.9 32.6 26.3 Z" fill="#ffffff"/><path d="M31.3 24.0 Q 30.6 20.2 26.7 17.7 Q 30.0 20.8 32.7 22.7 Z" fill="#ffffff"/><path d="M31.3 22.7 Q 35.8 20.8 37.3 17.7 Q 35.2 20.2 32.7 24.0 Z" fill="#ffffff"/><path d="M31.2 21.7 Q 30.4 17.8 26.3 15.3 Q 29.8 18.4 32.8 20.2 Z" fill="#ffffff"/><path d="M31.2 20.2 Q 36.0 18.4 37.7 15.3 Q 35.4 17.8 32.8 21.7 Z" fill="#ffffff"/><path d="M31.3 19.3 Q 30.4 15.5 26.3 13.2 Q 29.8 16.2 32.7 17.7 Z" fill="#ffffff"/><path d="M31.3 17.7 Q 36.0 16.2 37.7 13.2 Q 35.4 15.5 32.7 19.3 Z" fill="#ffffff"/><path d="M31.3 16.9 Q 30.5 13.4 26.6 11.4 Q 29.9 14.1 32.7 15.3 Z" fill="#ffffff"/><path d="M31.3 15.3 Q 35.9 14.1 37.4 11.4 Q 35.3 13.4 32.7 16.9 Z" fill="#ffffff"/><path d="M31.4 14.4 Q 30.8 11.4 27.2 9.8 Q 30.3 12.0 32.6 12.9 Z" fill="#ffffff"/><path d="M31.4 12.9 Q 35.5 12.0 36.8 9.8 Q 35.0 11.4 32.6 14.4 Z" fill="#ffffff"/><path d="M31.5 11.9 Q 31.2 9.5 28.2 8.4 Q 30.8 10.1 32.5 10.6 Z" fill="#ffffff"/><path d="M31.5 10.6 Q 35.0 10.1 35.8 8.4 Q 34.6 9.5 32.5 11.9 Z" fill="#ffffff"/><path d="M31.6 9.4 Q 31.7 7.7 29.3 6.9 Q 31.4 8.1 32.4 8.3 Z" fill="#ffffff"/><path d="M31.6 8.3 Q 34.4 8.1 34.7 6.9 Q 34.1 7.7 32.4 9.4 Z" fill="#ffffff"/><path d="M31.7 6.8 Q 32.3 5.8 30.6 5.5 Q 32.1 6.1 32.3 6.0 Z" fill="#ffffff"/><path d="M31.7 6.0 Q 33.7 6.1 33.4 5.5 Q 33.5 5.8 32.3 6.8 Z" fill="#ffffff"/><path d="M32 33 Q 32 18.5 32 4" stroke="#ffffff" stroke-width="1.7" fill="none" stroke-linecap="round"/></g><g transform="rotate(90.00 32 32)"><path d="M31.6 30.9 Q 32.1 29.1 30.0 27.9 Q 31.7 29.4 32.4 30.3 Z" fill="#ffffff"/><path d="M31.6 30.3 Q 34.1 29.4 34.0 27.9 Q 33.7 29.1 32.4 30.9 Z" fill="#ffffff"/><path d="M31.5 28.6 Q 31.4 25.9 28.6 23.9 Q 31.0 26.2 32.5 27.7 Z" fill="#ffffff"/><path d="M31.5 27.7 Q 34.8 26.2 35.4 23.9 Q 34.4 25.9 32.5 28.6 Z" fill="#ffffff"/><path d="M31.4 26.3 Q 30.9 22.9 27.5 20.6 Q 30.4 23.4 32.6 25.2 Z" fill="#ffffff"/><path d="M31.4 25.2 Q 35.4 23.4 36.5 20.6 Q 34.9 22.9 32.6 26.3 Z" fill="#ffffff"/><path d="M31.3 24.0 Q 30.6 20.2 26.7 17.7 Q 30.0 20.8 32.7 22.7 Z" fill="#ffffff"/><path d="M31.3 22.7 Q 35.8 20.8 37.3 17.7 Q 35.2 20.2 32.7 24.0 Z" fill="#ffffff"/><path d="M31.2 21.7 Q 30.4 17.8 26.3 15.3 Q 29.8 18.4 32.8 20.2 Z" fill="#ffffff"/><path d="M31.2 20.2 Q 36.0 18.4 37.7 15.3 Q 35.4 17.8 32.8 21.7 Z" fill="#ffffff"/><path d="M31.3 19.3 Q 30.4 15.5 26.3 13.2 Q 29.8 16.2 32.7 17.7 Z" fill="#ffffff"/><path d="M31.3 17.7 Q 36.0 16.2 37.7 13.2 Q 35.4 15.5 32.7 19.3 Z" fill="#ffffff"/><path d="M31.3 16.9 Q 30.5 13.4 26.6 11.4 Q 29.9 14.1 32.7 15.3 Z" fill="#ffffff"/><path d="M31.3 15.3 Q 35.9 14.1 37.4 11.4 Q 35.3 13.4 32.7 16.9 Z" fill="#ffffff"/><path d="M31.4 14.4 Q 30.8 11.4 27.2 9.8 Q 30.3 12.0 32.6 12.9 Z" fill="#ffffff"/><path d="M31.4 12.9 Q 35.5 12.0 36.8 9.8 Q 35.0 11.4 32.6 14.4 Z" fill="#ffffff"/><path d="M31.5 11.9 Q 31.2 9.5 28.2 8.4 Q 30.8 10.1 32.5 10.6 Z" fill="#ffffff"/><path d="M31.5 10.6 Q 35.0 10.1 35.8 8.4 Q 34.6 9.5 32.5 11.9 Z" fill="#ffffff"/><path d="M31.6 9.4 Q 31.7 7.7 29.3 6.9 Q 31.4 8.1 32.4 8.3 Z" fill="#ffffff"/><path d="M31.6 8.3 Q 34.4 8.1 34.7 6.9 Q 34.1 7.7 32.4 9.4 Z" fill="#ffffff"/><path d="M31.7 6.8 Q 32.3 5.8 30.6 5.5 Q 32.1 6.1 32.3 6.0 Z" fill="#ffffff"/><path d="M31.7 6.0 Q 33.7 6.1 33.4 5.5 Q 33.5 5.8 32.3 6.8 Z" fill="#ffffff"/><path d="M32 33 Q 32 18.5 32 4" stroke="#ffffff" stroke-width="1.7" fill="none" stroke-linecap="round"/></g><g transform="rotate(135.00 32 32)"><path d="M31.6 30.9 Q 32.1 29.1 30.0 27.9 Q 31.7 29.4 32.4 30.3 Z" fill="#ffffff"/><path d="M31.6 30.3 Q 34.1 29.4 34.0 27.9 Q 33.7 29.1 32.4 30.9 Z" fill="#ffffff"/><path d="M31.5 28.6 Q 31.4 25.9 28.6 23.9 Q 31.0 26.2 32.5 27.7 Z" fill="#ffffff"/><path d="M31.5 27.7 Q 34.8 26.2 35.4 23.9 Q 34.4 25.9 32.5 28.6 Z" fill="#ffffff"/><path d="M31.4 26.3 Q 30.9 22.9 27.5 20.6 Q 30.4 23.4 32.6 25.2 Z" fill="#ffffff"/><path d="M31.4 25.2 Q 35.4 23.4 36.5 20.6 Q 34.9 22.9 32.6 26.3 Z" fill="#ffffff"/><path d="M31.3 24.0 Q 30.6 20.2 26.7 17.7 Q 30.0 20.8 32.7 22.7 Z" fill="#ffffff"/><path d="M31.3 22.7 Q 35.8 20.8 37.3 17.7 Q 35.2 20.2 32.7 24.0 Z" fill="#ffffff"/><path d="M31.2 21.7 Q 30.4 17.8 26.3 15.3 Q 29.8 18.4 32.8 20.2 Z" fill="#ffffff"/><path d="M31.2 20.2 Q 36.0 18.4 37.7 15.3 Q 35.4 17.8 32.8 21.7 Z" fill="#ffffff"/><path d="M31.3 19.3 Q 30.4 15.5 26.3 13.2 Q 29.8 16.2 32.7 17.7 Z" fill="#ffffff"/><path d="M31.3 17.7 Q 36.0 16.2 37.7 13.2 Q 35.4 15.5 32.7 19.3 Z" fill="#ffffff"/><path d="M31.3 16.9 Q 30.5 13.4 26.6 11.4 Q 29.9 14.1 32.7 15.3 Z" fill="#ffffff"/><path d="M31.3 15.3 Q 35.9 14.1 37.4 11.4 Q 35.3 13.4 32.7 16.9 Z" fill="#ffffff"/><path d="M31.4 14.4 Q 30.8 11.4 27.2 9.8 Q 30.3 12.0 32.6 12.9 Z" fill="#ffffff"/><path d="M31.4 12.9 Q 35.5 12.0 36.8 9.8 Q 35.0 11.4 32.6 14.4 Z" fill="#ffffff"/><path d="M31.5 11.9 Q 31.2 9.5 28.2 8.4 Q 30.8 10.1 32.5 10.6 Z" fill="#ffffff"/><path d="M31.5 10.6 Q 35.0 10.1 35.8 8.4 Q 34.6 9.5 32.5 11.9 Z" fill="#ffffff"/><path d="M31.6 9.4 Q 31.7 7.7 29.3 6.9 Q 31.4 8.1 32.4 8.3 Z" fill="#ffffff"/><path d="M31.6 8.3 Q 34.4 8.1 34.7 6.9 Q 34.1 7.7 32.4 9.4 Z" fill="#ffffff"/><path d="M31.7 6.8 Q 32.3 5.8 30.6 5.5 Q 32.1 6.1 32.3 6.0 Z" fill="#ffffff"/><path d="M31.7 6.0 Q 33.7 6.1 33.4 5.5 Q 33.5 5.8 32.3 6.8 Z" fill="#ffffff"/><path d="M32 33 Q 32 18.5 32 4" stroke="#ffffff" stroke-width="1.7" fill="none" stroke-linecap="round"/></g><g transform="rotate(180.00 32 32)"><path d="M31.6 30.9 Q 32.1 29.1 30.0 27.9 Q 31.7 29.4 32.4 30.3 Z" fill="#ffffff"/><path d="M31.6 30.3 Q 34.1 29.4 34.0 27.9 Q 33.7 29.1 32.4 30.9 Z" fill="#ffffff"/><path d="M31.5 28.6 Q 31.4 25.9 28.6 23.9 Q 31.0 26.2 32.5 27.7 Z" fill="#ffffff"/><path d="M31.5 27.7 Q 34.8 26.2 35.4 23.9 Q 34.4 25.9 32.5 28.6 Z" fill="#ffffff"/><path d="M31.4 26.3 Q 30.9 22.9 27.5 20.6 Q 30.4 23.4 32.6 25.2 Z" fill="#ffffff"/><path d="M31.4 25.2 Q 35.4 23.4 36.5 20.6 Q 34.9 22.9 32.6 26.3 Z" fill="#ffffff"/><path d="M31.3 24.0 Q 30.6 20.2 26.7 17.7 Q 30.0 20.8 32.7 22.7 Z" fill="#ffffff"/><path d="M31.3 22.7 Q 35.8 20.8 37.3 17.7 Q 35.2 20.2 32.7 24.0 Z" fill="#ffffff"/><path d="M31.2 21.7 Q 30.4 17.8 26.3 15.3 Q 29.8 18.4 32.8 20.2 Z" fill="#ffffff"/><path d="M31.2 20.2 Q 36.0 18.4 37.7 15.3 Q 35.4 17.8 32.8 21.7 Z" fill="#ffffff"/><path d="M31.3 19.3 Q 30.4 15.5 26.3 13.2 Q 29.8 16.2 32.7 17.7 Z" fill="#ffffff"/><path d="M31.3 17.7 Q 36.0 16.2 37.7 13.2 Q 35.4 15.5 32.7 19.3 Z" fill="#ffffff"/><path d="M31.3 16.9 Q 30.5 13.4 26.6 11.4 Q 29.9 14.1 32.7 15.3 Z" fill="#ffffff"/><path d="M31.3 15.3 Q 35.9 14.1 37.4 11.4 Q 35.3 13.4 32.7 16.9 Z" fill="#ffffff"/><path d="M31.4 14.4 Q 30.8 11.4 27.2 9.8 Q 30.3 12.0 32.6 12.9 Z" fill="#ffffff"/><path d="M31.4 12.9 Q 35.5 12.0 36.8 9.8 Q 35.0 11.4 32.6 14.4 Z" fill="#ffffff"/><path d="M31.5 11.9 Q 31.2 9.5 28.2 8.4 Q 30.8 10.1 32.5 10.6 Z" fill="#ffffff"/><path d="M31.5 10.6 Q 35.0 10.1 35.8 8.4 Q 34.6 9.5 32.5 11.9 Z" fill="#ffffff"/><path d="M31.6 9.4 Q 31.7 7.7 29.3 6.9 Q 31.4 8.1 32.4 8.3 Z" fill="#ffffff"/><path d="M31.6 8.3 Q 34.4 8.1 34.7 6.9 Q 34.1 7.7 32.4 9.4 Z" fill="#ffffff"/><path d="M31.7 6.8 Q 32.3 5.8 30.6 5.5 Q 32.1 6.1 32.3 6.0 Z" fill="#ffffff"/><path d="M31.7 6.0 Q 33.7 6.1 33.4 5.5 Q 33.5 5.8 32.3 6.8 Z" fill="#ffffff"/><path d="M32 33 Q 32 18.5 32 4" stroke="#ffffff" stroke-width="1.7" fill="none" stroke-linecap="round"/></g><g transform="rotate(225.00 32 32)"><path d="M31.6 30.9 Q 32.1 29.1 30.0 27.9 Q 31.7 29.4 32.4 30.3 Z" fill="#ffffff"/><path d="M31.6 30.3 Q 34.1 29.4 34.0 27.9 Q 33.7 29.1 32.4 30.9 Z" fill="#ffffff"/><path d="M31.5 28.6 Q 31.4 25.9 28.6 23.9 Q 31.0 26.2 32.5 27.7 Z" fill="#ffffff"/><path d="M31.5 27.7 Q 34.8 26.2 35.4 23.9 Q 34.4 25.9 32.5 28.6 Z" fill="#ffffff"/><path d="M31.4 26.3 Q 30.9 22.9 27.5 20.6 Q 30.4 23.4 32.6 25.2 Z" fill="#ffffff"/><path d="M31.4 25.2 Q 35.4 23.4 36.5 20.6 Q 34.9 22.9 32.6 26.3 Z" fill="#ffffff"/><path d="M31.3 24.0 Q 30.6 20.2 26.7 17.7 Q 30.0 20.8 32.7 22.7 Z" fill="#ffffff"/><path d="M31.3 22.7 Q 35.8 20.8 37.3 17.7 Q 35.2 20.2 32.7 24.0 Z" fill="#ffffff"/><path d="M31.2 21.7 Q 30.4 17.8 26.3 15.3 Q 29.8 18.4 32.8 20.2 Z" fill="#ffffff"/><path d="M31.2 20.2 Q 36.0 18.4 37.7 15.3 Q 35.4 17.8 32.8 21.7 Z" fill="#ffffff"/><path d="M31.3 19.3 Q 30.4 15.5 26.3 13.2 Q 29.8 16.2 32.7 17.7 Z" fill="#ffffff"/><path d="M31.3 17.7 Q 36.0 16.2 37.7 13.2 Q 35.4 15.5 32.7 19.3 Z" fill="#ffffff"/><path d="M31.3 16.9 Q 30.5 13.4 26.6 11.4 Q 29.9 14.1 32.7 15.3 Z" fill="#ffffff"/><path d="M31.3 15.3 Q 35.9 14.1 37.4 11.4 Q 35.3 13.4 32.7 16.9 Z" fill="#ffffff"/><path d="M31.4 14.4 Q 30.8 11.4 27.2 9.8 Q 30.3 12.0 32.6 12.9 Z" fill="#ffffff"/><path d="M31.4 12.9 Q 35.5 12.0 36.8 9.8 Q 35.0 11.4 32.6 14.4 Z" fill="#ffffff"/><path d="M31.5 11.9 Q 31.2 9.5 28.2 8.4 Q 30.8 10.1 32.5 10.6 Z" fill="#ffffff"/><path d="M31.5 10.6 Q 35.0 10.1 35.8 8.4 Q 34.6 9.5 32.5 11.9 Z" fill="#ffffff"/><path d="M31.6 9.4 Q 31.7 7.7 29.3 6.9 Q 31.4 8.1 32.4 8.3 Z" fill="#ffffff"/><path d="M31.6 8.3 Q 34.4 8.1 34.7 6.9 Q 34.1 7.7 32.4 9.4 Z" fill="#ffffff"/><path d="M31.7 6.8 Q 32.3 5.8 30.6 5.5 Q 32.1 6.1 32.3 6.0 Z" fill="#ffffff"/><path d="M31.7 6.0 Q 33.7 6.1 33.4 5.5 Q 33.5 5.8 32.3 6.8 Z" fill="#ffffff"/><path d="M32 33 Q 32 18.5 32 4" stroke="#ffffff" stroke-width="1.7" fill="none" stroke-linecap="round"/></g><g transform="rotate(270.00 32 32)"><path d="M31.6 30.9 Q 32.1 29.1 30.0 27.9 Q 31.7 29.4 32.4 30.3 Z" fill="#ffffff"/><path d="M31.6 30.3 Q 34.1 29.4 34.0 27.9 Q 33.7 29.1 32.4 30.9 Z" fill="#ffffff"/><path d="M31.5 28.6 Q 31.4 25.9 28.6 23.9 Q 31.0 26.2 32.5 27.7 Z" fill="#ffffff"/><path d="M31.5 27.7 Q 34.8 26.2 35.4 23.9 Q 34.4 25.9 32.5 28.6 Z" fill="#ffffff"/><path d="M31.4 26.3 Q 30.9 22.9 27.5 20.6 Q 30.4 23.4 32.6 25.2 Z" fill="#ffffff"/><path d="M31.4 25.2 Q 35.4 23.4 36.5 20.6 Q 34.9 22.9 32.6 26.3 Z" fill="#ffffff"/><path d="M31.3 24.0 Q 30.6 20.2 26.7 17.7 Q 30.0 20.8 32.7 22.7 Z" fill="#ffffff"/><path d="M31.3 22.7 Q 35.8 20.8 37.3 17.7 Q 35.2 20.2 32.7 24.0 Z" fill="#ffffff"/><path d="M31.2 21.7 Q 30.4 17.8 26.3 15.3 Q 29.8 18.4 32.8 20.2 Z" fill="#ffffff"/><path d="M31.2 20.2 Q 36.0 18.4 37.7 15.3 Q 35.4 17.8 32.8 21.7 Z" fill="#ffffff"/><path d="M31.3 19.3 Q 30.4 15.5 26.3 13.2 Q 29.8 16.2 32.7 17.7 Z" fill="#ffffff"/><path d="M31.3 17.7 Q 36.0 16.2 37.7 13.2 Q 35.4 15.5 32.7 19.3 Z" fill="#ffffff"/><path d="M31.3 16.9 Q 30.5 13.4 26.6 11.4 Q 29.9 14.1 32.7 15.3 Z" fill="#ffffff"/><path d="M31.3 15.3 Q 35.9 14.1 37.4 11.4 Q 35.3 13.4 32.7 16.9 Z" fill="#ffffff"/><path d="M31.4 14.4 Q 30.8 11.4 27.2 9.8 Q 30.3 12.0 32.6 12.9 Z" fill="#ffffff"/><path d="M31.4 12.9 Q 35.5 12.0 36.8 9.8 Q 35.0 11.4 32.6 14.4 Z" fill="#ffffff"/><path d="M31.5 11.9 Q 31.2 9.5 28.2 8.4 Q 30.8 10.1 32.5 10.6 Z" fill="#ffffff"/><path d="M31.5 10.6 Q 35.0 10.1 35.8 8.4 Q 34.6 9.5 32.5 11.9 Z" fill="#ffffff"/><path d="M31.6 9.4 Q 31.7 7.7 29.3 6.9 Q 31.4 8.1 32.4 8.3 Z" fill="#ffffff"/><path d="M31.6 8.3 Q 34.4 8.1 34.7 6.9 Q 34.1 7.7 32.4 9.4 Z" fill="#ffffff"/><path d="M31.7 6.8 Q 32.3 5.8 30.6 5.5 Q 32.1 6.1 32.3 6.0 Z" fill="#ffffff"/><path d="M31.7 6.0 Q 33.7 6.1 33.4 5.5 Q 33.5 5.8 32.3 6.8 Z" fill="#ffffff"/><path d="M32 33 Q 32 18.5 32 4" stroke="#ffffff" stroke-width="1.7" fill="none" stroke-linecap="round"/></g><g transform="rotate(315.00 32 32)"><path d="M31.6 30.9 Q 32.1 29.1 30.0 27.9 Q 31.7 29.4 32.4 30.3 Z" fill="#ffffff"/><path d="M31.6 30.3 Q 34.1 29.4 34.0 27.9 Q 33.7 29.1 32.4 30.9 Z" fill="#ffffff"/><path d="M31.5 28.6 Q 31.4 25.9 28.6 23.9 Q 31.0 26.2 32.5 27.7 Z" fill="#ffffff"/><path d="M31.5 27.7 Q 34.8 26.2 35.4 23.9 Q 34.4 25.9 32.5 28.6 Z" fill="#ffffff"/><path d="M31.4 26.3 Q 30.9 22.9 27.5 20.6 Q 30.4 23.4 32.6 25.2 Z" fill="#ffffff"/><path d="M31.4 25.2 Q 35.4 23.4 36.5 20.6 Q 34.9 22.9 32.6 26.3 Z" fill="#ffffff"/><path d="M31.3 24.0 Q 30.6 20.2 26.7 17.7 Q 30.0 20.8 32.7 22.7 Z" fill="#ffffff"/><path d="M31.3 22.7 Q 35.8 20.8 37.3 17.7 Q 35.2 20.2 32.7 24.0 Z" fill="#ffffff"/><path d="M31.2 21.7 Q 30.4 17.8 26.3 15.3 Q 29.8 18.4 32.8 20.2 Z" fill="#ffffff"/><path d="M31.2 20.2 Q 36.0 18.4 37.7 15.3 Q 35.4 17.8 32.8 21.7 Z" fill="#ffffff"/><path d="M31.3 19.3 Q 30.4 15.5 26.3 13.2 Q 29.8 16.2 32.7 17.7 Z" fill="#ffffff"/><path d="M31.3 17.7 Q 36.0 16.2 37.7 13.2 Q 35.4 15.5 32.7 19.3 Z" fill="#ffffff"/><path d="M31.3 16.9 Q 30.5 13.4 26.6 11.4 Q 29.9 14.1 32.7 15.3 Z" fill="#ffffff"/><path d="M31.3 15.3 Q 35.9 14.1 37.4 11.4 Q 35.3 13.4 32.7 16.9 Z" fill="#ffffff"/><path d="M31.4 14.4 Q 30.8 11.4 27.2 9.8 Q 30.3 12.0 32.6 12.9 Z" fill="#ffffff"/><path d="M31.4 12.9 Q 35.5 12.0 36.8 9.8 Q 35.0 11.4 32.6 14.4 Z" fill="#ffffff"/><path d="M31.5 11.9 Q 31.2 9.5 28.2 8.4 Q 30.8 10.1 32.5 10.6 Z" fill="#ffffff"/><path d="M31.5 10.6 Q 35.0 10.1 35.8 8.4 Q 34.6 9.5 32.5 11.9 Z" fill="#ffffff"/><path d="M31.6 9.4 Q 31.7 7.7 29.3 6.9 Q 31.4 8.1 32.4 8.3 Z" fill="#ffffff"/><path d="M31.6 8.3 Q 34.4 8.1 34.7 6.9 Q 34.1 7.7 32.4 9.4 Z" fill="#ffffff"/><path d="M31.7 6.8 Q 32.3 5.8 30.6 5.5 Q 32.1 6.1 32.3 6.0 Z" fill="#ffffff"/><path d="M31.7 6.0 Q 33.7 6.1 33.4 5.5 Q 33.5 5.8 32.3 6.8 Z" fill="#ffffff"/><path d="M32 33 Q 32 18.5 32 4" stroke="#ffffff" stroke-width="1.7" fill="none" stroke-linecap="round"/></g><circle cx="32" cy="32" r="5.2" fill="none" stroke="#ffffff" stroke-width="1.8"/><circle cx="32" cy="32" r="2.4" fill="#ffffff"/></g>
</svg>
