<svg id="Layer_1" data-name="Layer 1" xmlns="http://www.w3.org/2000/svg" viewBox="0 0 124.12 127.49"><path d="M62.06,12.29a51.46,51.46,0,1,0,51.46,51.45A51.45,51.45,0,0,0,62.06,12.29ZM89.57,38h-.35c-4.19,0-4.54,3.4-4.54,13.91V75.56c0,10.51.35,13.91,4.54,13.91h.35V90.7H74.51V89.47h.35c4.19,0,4.54-3.4,4.54-13.91V40.83c-2.77,7.43-5.47,14.72-8.27,22.28s-5.6,15.12-8.72,23.48l-.08.22h-.94l-.1-.2c-5.21-11.15-9-19.36-13.13-28.17-2.3-4.92-4.68-10-7.44-15.95l0,28c0,12.59,2.89,19,8.59,19h.35V90.7H34.55V89.47h.35c4.19,0,4.54-3.4,4.54-13.91V51.93C39.44,41.42,39.09,38,34.9,38h-.35V36.79h9.13l.1.2L63.86,79.13,79.61,36.79h10Z" fill="#302c29"/></svg>