<svg id="Layer_1" data-name="Layer 1" xmlns="http://www.w3.org/2000/svg" viewBox="0 0 123.49 117.52"><path d="M61.75,6.8a52,52,0,1,0,52,52A52,52,0,0,0,61.75,6.8Zm0,102.92a51,51,0,1,1,51-51A51,51,0,0,1,61.75,109.72Z" fill="#302c29"/><path d="M63.58,75,43.15,32.16H34.58v.53c4.58,0,4.9,3.78,4.9,14.26V70.57c0,10.48-.32,14.26-4.9,14.26v.53H49v-.53C44.37,84.83,40,81,40,65.52V58.76l.05-22.83C48.15,53.28,52.94,63.6,61.29,81.48h.48c6.55-17.56,11.92-32.19,17.67-47.57V70.57c0,10.48-.32,14.26-4.9,14.26v.53H88.91v-.53c-4.58,0-4.9-3.78-4.9-14.26V47c0-10.48.32-14.26,4.9-14.26v-.53H79.54Z" fill="#302c29"/></svg>