<svg id="Layer_1" data-name="Layer 1" xmlns="http://www.w3.org/2000/svg" viewBox="0 0 165.25 189.29"><path d="M37.08,67.27a5.12,5.12,0,0,0,2,.32,11.73,11.73,0,0,0,4.3-1.12,26.39,26.39,0,0,0,10.68-8c.37-.53.64-.9.8-1.11a12.75,12.75,0,0,0,.71-1.16,6.42,6.42,0,0,0,.64-1.43,5.5,5.5,0,0,0,.16-1.44,3.09,3.09,0,0,0-.4-1.55,28.32,28.32,0,0,1,9.88-2.15,5.1,5.1,0,0,1,.91.06,14.81,14.81,0,0,0-2.5,3.52,6.09,6.09,0,0,0-1,2.39,1.3,1.3,0,0,0,.64,1.28,2.28,2.28,0,0,0,1.59.08c1.86-.43,2.87-1.83,3-4.22a9.32,9.32,0,0,0-.24-2.24,8.39,8.39,0,0,0,2.24.48A18.48,18.48,0,0,0,78.5,49.7c-.06.11-.16.3-.33.59a2.79,2.79,0,0,0-.32.68,6.18,6.18,0,0,1-.2.68.81.81,0,0,0,0,.72c0,.47.32.79,1,1h.63l.76-.16a4.4,4.4,0,0,0,.76-.24l.67-.28a3.35,3.35,0,0,0,.68-.39,3.26,3.26,0,0,1,.6-.36,2.9,2.9,0,0,0,.64-.44l.52-.44.55-.48a2.43,2.43,0,0,1,.56-.4c.48,1,1.62,1.44,3.43,1.44a25.31,25.31,0,0,0,8.3-1.91,26.16,26.16,0,0,0-1.61,5.89,7,7,0,0,0,.24,2.55A2.52,2.52,0,0,0,97,59.66a5.1,5.1,0,0,0,2.35.16,13.16,13.16,0,0,0,2.43-.68q6.28-2.55,13.39-9.64a.21.21,0,0,0,0-.24c-.16-.21-.3-.24-.4-.08A54.28,54.28,0,0,1,105.22,57a18.73,18.73,0,0,1-5.73,2.47,3.14,3.14,0,0,1-3-.44,3.2,3.2,0,0,1-1-2.59A16.12,16.12,0,0,1,96,53.08,15.26,15.26,0,0,1,97.09,50a.64.64,0,0,0,1-.07q.56-.72,1.71-2.28c.77-1,1.4-1.84,1.88-2.43q2.94-3.59,7.17-9.72T116,24.23a96.72,96.72,0,0,0,7.66-15.54l.19-.44a5,5,0,0,0,.2-.52,1.29,1.29,0,0,0,.08-.47l.08-.4q0-.72-.39-.72a1.84,1.84,0,0,0-.72.24,15.79,15.79,0,0,0-2.15,2.31c-2.08,2.6-4.5,6-7.26,10.2a233.88,233.88,0,0,0-12.59,21.2,96,96,0,0,0-4.14,8.85.47.47,0,0,0,0,.09q-9.94,4.29-11.69.79a13.77,13.77,0,0,0,1.51-1.44,5.65,5.65,0,0,0,1.52-1.91c0-.53-.21-.8-.64-.8a3.11,3.11,0,0,0-1.59.6,3.77,3.77,0,0,0-1.12,1.27,3,3,0,0,0-.32,1.64c0,.11,0,.16.08.16a19.32,19.32,0,0,1-3.42,2.71l-1.2.48c-1.43.42-2,.16-1.67-.8A7.65,7.65,0,0,1,80,49.1l.72-1c.16-.32.08-.53-.24-.64a.71.71,0,0,0-.28-.08.56.56,0,0,0-.32.2,2.83,2.83,0,0,0-.28.32,7.12,7.12,0,0,0-.32.68,4.3,4.3,0,0,0-.35.48h0a16.54,16.54,0,0,1-6.61,1.51,8.92,8.92,0,0,1-4-.71,1.47,1.47,0,0,1-.16-.48Q68,49,67.93,48.7c-.06-.21-.12-.43-.2-.64a1.58,1.58,0,0,0-.32-.52.64.64,0,0,0-.44-.2c-.37-.05-.59.14-.64.56a4.38,4.38,0,0,0,.31,1.2h-.79a27.54,27.54,0,0,0-10.12,2.23,5,5,0,0,0-1.43-1l-1.2-.63a50.4,50.4,0,0,0,6.7-5.26,9.64,9.64,0,0,0,1.67-2.47,1.29,1.29,0,0,0,.08-.84c0-.4-.19-.6-.4-.6a.6.6,0,0,0-.24-.08,4.05,4.05,0,0,0-1.75.32,16.25,16.25,0,0,0-6.14,4q-2.55,2.79-1,4.71a.37.37,0,0,0,.12.52.41.41,0,0,0,.51,0,3.23,3.23,0,0,0,1.4.84,3.78,3.78,0,0,1,1.39.76,50.61,50.61,0,0,0-15.62,10A16.71,16.71,0,0,0,37.08,65a5.15,5.15,0,0,0-.4,1C36.47,66.63,36.6,67.06,37.08,67.27Zm64.48-26.94a230.94,230.94,0,0,1,12.51-21.12q4.38-6.61,7.25-10.2a14.4,14.4,0,0,1,2.08-2.23l.31-.16h.09c0,.32,0,.5-.09.56a31.91,31.91,0,0,1-2.7,6.93c-1,2-2.14,4.17-3.39,6.46s-2.55,4.51-3.91,6.69-2.76,4.33-4.22,6.46-2.88,4.13-4.27,6-2.71,3.63-4,5.22a18.36,18.36,0,0,1-3.51,3.43C98.64,46.15,99.91,43.47,101.56,40.33ZM86.73,47c-.1.16-.69.82-1.75,2A2.36,2.36,0,0,1,86.73,47Zm-19.6,3a9.58,9.58,0,0,1,.48,2.87c0,2-.75,3.17-2.23,3.43-1,.27-1.44.08-1.44-.56a3.89,3.89,0,0,1,.24-1.19A13.1,13.1,0,0,1,67.13,50Zm-14.9-.87q-1.27-1.68,1-4.23a15.13,15.13,0,0,1,6-3.82,3.81,3.81,0,0,1,1.51-.24c.27,0,.4.11.4.32a.76.76,0,0,1-.16.64,5.5,5.5,0,0,1-1.67,2.31,20.68,20.68,0,0,1-6.22,4.54,1.26,1.26,0,0,1-.4.2A1.22,1.22,0,0,0,52.23,49.1ZM37.24,65A12.87,12.87,0,0,1,40,61.77a50.57,50.57,0,0,1,15.62-9.88,2.92,2.92,0,0,1,.16,2.55,10.12,10.12,0,0,1-2,3.82,30.1,30.1,0,0,1-6.62,6c-3.13,2-5.87,3-8.2,3.19a3.37,3.37,0,0,1-2-.4A1.86,1.86,0,0,1,37.24,65Z" fill="#302c29"/><path d="M89.68,106.08a.77.77,0,0,0-.56.87c0,.32.24.43.72.32s.8-.34.8-.72S90.32,105.92,89.68,106.08Z" fill="#302c29"/><path d="M117.58,107.27c.53-.1.79-.34.79-.72s-.31-.63-1-.47a.76.76,0,0,0-.56.87C116.86,107.27,117.1,107.38,117.58,107.27Z" fill="#302c29"/><path d="M158.14,109.74a23,23,0,0,0-5,3.43,89,89,0,0,0-8.92,9.4c.31-.53.75-1.31,1.31-2.35s1-1.82,1.24-2.35l2.79-5.26a22.25,22.25,0,0,1,3-4.78c.43-.43.56-.8.4-1.12a.74.74,0,0,0-.87-.47,1.11,1.11,0,0,0-.88.47v.08q-2.86,4.15-9.88,7.73-5,2.24-5.26-.47a5.81,5.81,0,0,1,1.83-4.23l.36-.32.48-.4a1.28,1.28,0,0,0,.35-.47.34.34,0,0,0-.07-.48.54.54,0,0,0-.48-.2.82.82,0,0,0-.48.4c-.16.24-.29.45-.4.64s-.19.33-.24.43-.09.16-.18.32,0,0-.06,0a19.65,19.65,0,0,1-3.66,1.76,12.23,12.23,0,0,1-4.91.75c-1.72-.08-2.77-.81-3.14-2.19.16-.26.38-.69.67-1.27a14,14,0,0,1,1-1.68q1.52-2.22,7.49-12.19a2.82,2.82,0,0,0,.44,0,2.82,2.82,0,0,1,.44,0q8-.48,10.2-.48h2.87c.32,0,.74,0,1.28,0s.92,0,1.19,0a6.49,6.49,0,0,1,.72,0l.76.08.71.08.68.08a4.49,4.49,0,0,0,.64,0,.24.24,0,1,0,0-.48,8.74,8.74,0,0,0-1.6-.16c-.21,0-.53,0-1,0s-.75,0-1,0-.66,0-1.19,0-1,0-1.28,0q-4.38,0-13.15.56l-.32,0a2,2,0,0,1-.32,0c.32-.53.78-1.36,1.4-2.47s1.08-2,1.43-2.67.78-1.52,1.32-2.55,1-2,1.35-2.79.74-1.74,1.12-2.75.71-2,1-3c.06-.58.08-1,.08-1.12a.62.62,0,0,1-.08-.23.65.65,0,0,0-.4-.24.12.12,0,0,0-.11,0,.21.21,0,0,1-.12,0A7,7,0,0,0,140,78.74a100.83,100.83,0,0,0-9.8,16,62.87,62.87,0,0,1-7.73.32q-5.66-.31-5.66-1.2a.48.48,0,0,0-.64.24.58.58,0,0,0,.32.64,3.27,3.27,0,0,0,1.12.36c.48.08.91.13,1.31.16s.79,0,1.16,0,1.27.08,2.39.08a73.71,73.71,0,0,0,7.57-.32q-3,5.9-3.91,8.13-1.59,4-1.35,6.05l-.32.4a.07.07,0,0,0-.08.08.51.51,0,0,0,0,.4,16.1,16.1,0,0,1-5.4,2.47,5.17,5.17,0,0,1-2.39-.08c-.74-.21-1-.64-.88-1.27a1.61,1.61,0,0,1,.08-.48,1.66,1.66,0,0,1,.2-.4,1.58,1.58,0,0,0,.2-.36,1,1,0,0,0,.08-.36v-.16c0-.37-.15-.57-.44-.59a.81.81,0,0,0-.67.19,6.39,6.39,0,0,0-.21.71c-5.29,1.94-8.5,1.93-9.6-.07l-.08-.08a9.14,9.14,0,0,0,2.39-3.82,1.07,1.07,0,0,0,.08-.32q0-.24-.39-.24a.74.74,0,0,0-.4.16,1.45,1.45,0,0,0-.36.32l-.32.4a3.81,3.81,0,0,1-.28.31c-1,1.33-1.35,2.4-1,3.19-.74.75-1.32,1.31-1.75,1.68-.58.53-1.69,1.46-3.31,2.79s-2.83,2.36-3.62,3.1a21.91,21.91,0,0,0,1.59-8.2,5.73,5.73,0,0,0-.16-1.28c-.32-1.38-.8-1.73-1.43-1-.27.38-.19.75.24,1.12l.08.08a3.17,3.17,0,0,1,.59,1.9h0a17,17,0,0,1-5.89,2.79,5.17,5.17,0,0,1-2.39-.08c-.75-.21-1-.64-.88-1.27a1.61,1.61,0,0,1,.08-.48,1.36,1.36,0,0,1,.2-.4,2.08,2.08,0,0,0,.2-.36,1,1,0,0,0,.08-.36v-.16c0-.37-.15-.57-.44-.59a.83.83,0,0,0-.68.19,6.41,6.41,0,0,0-.22.77,20,20,0,0,1-3.44,1.63,12.23,12.23,0,0,1-4.91.75c-1.72-.08-2.77-.81-3.14-2.19.15-.26.38-.69.67-1.27a12.83,12.83,0,0,1,1-1.68q1.52-2.22,7.49-12.19a2.82,2.82,0,0,0,.44,0,2.73,2.73,0,0,1,.44,0q8-.48,10.2-.48h2.87c.32,0,.74,0,1.27,0s.93,0,1.2,0a6.49,6.49,0,0,1,.72,0l.75.08.72.08.68.08a4.49,4.49,0,0,0,.64,0,.24.24,0,0,0,0-.48,8.74,8.74,0,0,0-1.6-.16c-.21,0-.53,0-1,0s-.75,0-1,0-.67,0-1.2,0-1,0-1.27,0q-4.38,0-13.15.56a1.89,1.89,0,0,0-.32,0,2,2,0,0,1-.32,0c.32-.53.78-1.36,1.4-2.47s1.08-2,1.43-2.67.78-1.52,1.32-2.55,1-2,1.35-2.79.74-1.74,1.12-2.75.71-2,1-3c.05-.58.08-1,.08-1.12a.62.62,0,0,1-.08-.23.65.65,0,0,0-.4-.24.16.16,0,0,0-.12,0,.17.17,0,0,1-.12,0,7,7,0,0,0-1.83,1.91,100.83,100.83,0,0,0-9.8,16,63,63,0,0,1-7.73.32c-3.78-.21-5.66-.61-5.66-1.2a.48.48,0,0,0-.64.24.57.57,0,0,0,.32.64,3.28,3.28,0,0,0,1.11.36c.48.08.92.13,1.32.16s.78,0,1.16,0,1.27.08,2.39.08a73.71,73.71,0,0,0,7.57-.32q-3,5.9-3.91,8.13-1.59,4-1.35,6.05l-.32.4a.07.07,0,0,0-.08.08.56.56,0,0,0,0,.42,24.09,24.09,0,0,1-2.69,1.1,10,10,0,0,1-3.43.79A1.64,1.64,0,0,1,67,111.5a1.76,1.76,0,0,1-.16-1.84.71.71,0,0,0,.64.16,1,1,0,0,0,.56-.4q.22-.08.12-.39a1.77,1.77,0,0,1-.12-.36,3.92,3.92,0,0,0-.56-.52,11.42,11.42,0,0,0,.79-1.44.49.49,0,0,0-.87-.39l-.08.08a6.08,6.08,0,0,1-1.12,1.27l-.88-.16A8.12,8.12,0,0,0,62,108a4.51,4.51,0,0,0-2.31,1.71.7.7,0,0,0-.08.2l-1.76.84a49.25,49.25,0,0,1-5.1,1.83q-7.48,2.07-11.63,1.76a6.88,6.88,0,0,1-2-.48c-.63-.27-.87-.67-.71-1.2a1,1,0,0,1,0-.24,1.48,1.48,0,0,0,0-.24,6,6,0,0,1,.71-1.67h.16q6.47-.48,8.13-4a.87.87,0,0,0,.16-.63.91.91,0,0,0-1-1h-.56a6.56,6.56,0,0,0-2.07.72,12.6,12.6,0,0,0-5,4.22,2.89,2.89,0,0,1-.76-.12,2.77,2.77,0,0,0-.68-.12.24.24,0,0,0-.16-.08l-.16-.08c-.37,0-.56.22-.56.64s.22.56.64.56h.48a2.86,2.86,0,0,0,.68-.06A32.67,32.67,0,0,1,32.14,118a3.93,3.93,0,0,1-1.83,1c-.21,0-.32-.29-.32-.88a5.41,5.41,0,0,1,.32-1.67,38.39,38.39,0,0,0,1.67-5.1,3.77,3.77,0,0,0,0-1.2,8.9,8.9,0,0,0-.36-1.31,3.49,3.49,0,0,1-.24-1,.62.62,0,0,1-.08-.68,1.09,1.09,0,0,0,.12-.56c0-.08.07-.25.28-.51s.33-.41.36-.44l.36-.36.4-.4c.37-.26.34-.56-.08-.88s-.64-.21-.8.32h-.08a6.22,6.22,0,0,0-.95,2l-.72,1L28,109.9h0l-.16.07a1.39,1.39,0,0,1-.36.12,2,2,0,0,0-.44.16,3.26,3.26,0,0,1-.48.2,90.2,90.2,0,0,1-11.47,2.87,26.82,26.82,0,0,1-5.82.48,3.21,3.21,0,0,1-1.68-.4c-.42-.27-.5-.67-.23-1.2q2.14-3.25,8.05-5.5a23.1,23.1,0,0,1,3.26-1c1.6-.4,2.39-.41,2.39,0a1.83,1.83,0,0,1-.71,1.15,1.85,1.85,0,0,0-.72,1.16v.08a.71.71,0,0,0,.88.72h.08a3.35,3.35,0,0,0,1.59-2.71c0-.91-.48-1.38-1.43-1.44a6.13,6.13,0,0,0-2.48.32,27.21,27.21,0,0,0-9.64,5A4.77,4.77,0,0,0,7,112c-.48.7-.44,1.21.12,1.56a4,4,0,0,0,2.11.52,6.42,6.42,0,0,0,2,0q6.37-.48,17.14-3.75c.2,0,.24-.15.16-.3l1.91-2.49a1.67,1.67,0,0,0,.24-.32,4.17,4.17,0,0,0,.23,1.32c.16.45.31.9.44,1.35a3,3,0,0,1,.12,1.32,8.71,8.71,0,0,1-.95,3.42,8.57,8.57,0,0,0-1,3.35c0,.91.24,1.36.72,1.36a3.85,3.85,0,0,0,2.07-1,19,19,0,0,0,2.55-2.55A39.14,39.14,0,0,0,38,112.07a2.85,2.85,0,0,0-.08.62q0,3,7.49,2a48.2,48.2,0,0,0,14-4.1s0,.08,0,.12c0,.58.42.82,1.27.72a6.33,6.33,0,0,0,1.44-.36,6.87,6.87,0,0,0,1.15-.56c.29-.19.68-.45,1.16-.8a5.92,5.92,0,0,1,1.11-.67,6.4,6.4,0,0,1,.88.31,1.79,1.79,0,0,0-.16.64,1.73,1.73,0,0,0,.4,1.76,2.57,2.57,0,0,0,1.75.55c.21,0,.83-.08,1.84-.24a42.75,42.75,0,0,0,4.55-1.5.39.39,0,0,0,.31-.09,2.64,2.64,0,0,0,1.75,1.83,5.61,5.61,0,0,0,2.23.52,10.35,10.35,0,0,0,2.15-.12,11.91,11.91,0,0,0,2.24-.64c.84-.31,1.48-.58,1.91-.79s1-.46,1.6-.77a2.39,2.39,0,0,0,2.38,2.72,5.56,5.56,0,0,0,2.35-.28,21.42,21.42,0,0,0,2.16-.8c.61-.26,1.15-.53,1.63-.79.21-.11.52-.3.92-.56l.65-.44c0,.2,0,.38,0,.6a20.86,20.86,0,0,1-.48,3.66l-.47,1.84-.4,1.35a7.13,7.13,0,0,0-2,2.63,2.85,2.85,0,0,0-.16,1.16c0,.56.16.84.47.84a.58.58,0,0,0,.64-.32,3.31,3.31,0,0,0,.36-1.16,3,3,0,0,1,.2-.84l.56-1.75A1.54,1.54,0,0,1,96,118q1.27-1.27,4.42-3.9A46.27,46.27,0,0,0,105,109.9a2.41,2.41,0,0,0,1,.8c1.69,1.13,4.65,1,8.85-.33a3,3,0,0,0,.56,2,2.9,2.9,0,0,0,1.83.84,5.58,5.58,0,0,0,2.35-.28,21.17,21.17,0,0,0,2.15-.8c.61-.26,1.16-.53,1.64-.79.21-.11.51-.3.91-.56l.4-.26a.35.35,0,0,0,.36-.06,2.64,2.64,0,0,0,1.75,1.83,5.61,5.61,0,0,0,2.23.52,10.35,10.35,0,0,0,2.15-.12,11.7,11.7,0,0,0,2.24-.64,20.42,20.42,0,0,0,1.91-.79c.39-.2.9-.44,1.5-.72l-.07.12a7.69,7.69,0,0,0-.83,1.83,4.65,4.65,0,0,0-.12,1.64,1.43,1.43,0,0,0,.71,1.35,3.26,3.26,0,0,0,1.84.32,13,13,0,0,0,3.11-1,51,51,0,0,0,5.58-3.34,10.87,10.87,0,0,0,1.19-.76c.48-.35.92-.65,1.32-.92s.78-.5,1.15-.71a26.15,26.15,0,0,1-1.59,3.42l-2.63,5.1c-.37.75-1.6,3.09-3.67,7-.21.21-.49.52-.83.91s-.6.71-.76.92a150.4,150.4,0,0,0-10.36,14.66,25.84,25.84,0,0,0-2.87,5.74c0,.37.16.56.48.56h.15a.49.49,0,0,0,.32-.24,13.64,13.64,0,0,0,3-3.43c1.28-1.86,2.51-3.78,3.71-5.77s2.68-4.59,4.46-7.77,2.94-5.24,3.47-6.14q2.7-3.27,5.66-6.38c.95-1,1.66-1.74,2.11-2.19s1.11-1.07,2-1.87a19.81,19.81,0,0,1,2.55-2,16.62,16.62,0,0,1,2.51-1.36.25.25,0,0,0,.16-.24C158.49,109.66,158.36,109.58,158.14,109.74ZM44.33,106.4c1.44-.64,2.26-.83,2.48-.56v.08a.27.27,0,0,1-.08.16v.16a5.82,5.82,0,0,1-1.64,2,7.71,7.71,0,0,1-2.47,1.27,9.41,9.41,0,0,1-2.91.44A9.63,9.63,0,0,1,44.33,106.4Zm16.82,4.06a1.61,1.61,0,0,1-.48.08h-.24c0-.05.06-.11.16-.16.8-1,2.18-1.51,4.15-1.51C63,109.66,61.84,110.19,61.15,110.46ZM88,82.49c1-1.49,1.8-2.61,2.39-3.35a3.54,3.54,0,0,0,.4-.52,3.54,3.54,0,0,1,.4-.52l.4-.4a2.22,2.22,0,0,1,.55-.4,1.74,1.74,0,0,1-.08.88,56.6,56.6,0,0,1-3,7.49q-2.22,4.62-4.78,8.85-.48.08-1.11.12l-1.24.08c-.4,0-.76,0-1.07,0Q85.61,86.23,88,82.49Zm-11.32,21a90.22,90.22,0,0,1,4-8.29c.79,0,2-.16,3.5-.32q-4.22,7.41-7.33,11.79A7.83,7.83,0,0,1,76,108a11.52,11.52,0,0,0-.71.92A14.67,14.67,0,0,1,76.69,103.53Zm17.77,17a3.09,3.09,0,0,1,.88-1.75A6.75,6.75,0,0,1,94.46,120.58Zm11.64-13.87a5.69,5.69,0,0,1,1.2-1.11h.07v.32a10.72,10.72,0,0,1-2.23,3.66A3.86,3.86,0,0,1,106.1,106.71Zm31.72-24.22c1-1.49,1.81-2.61,2.39-3.35a3.54,3.54,0,0,0,.4-.52,3.54,3.54,0,0,1,.4-.52l.4-.4a2.22,2.22,0,0,1,.55-.4,1.82,1.82,0,0,1-.07.88,59.54,59.54,0,0,1-3,7.49q-2.24,4.62-4.79,8.85c-.31,0-.69.09-1.11.12l-1.24.08c-.39,0-.75,0-1.07,0Q135.44,86.23,137.82,82.49Zm-11.32,21a90.22,90.22,0,0,1,4-8.29c.79,0,2-.16,3.5-.32q-4.22,7.41-7.33,11.79a8.4,8.4,0,0,1-.87,1.24,10.18,10.18,0,0,0-.72.92A14.67,14.67,0,0,1,126.5,103.53Zm14.27,24.62q-3.44,6.3-5.9,10.36a62.17,62.17,0,0,1-5,7.34,9.32,9.32,0,0,1-1.36,1.19h-.23v-.56a33,33,0,0,1,2.79-5.26q.8-1.28,1.71-2.67c.61-.93,1.17-1.75,1.67-2.47s1.13-1.58,1.88-2.59l1.79-2.43,1.91-2.59c.83-1.11,1.42-1.91,1.8-2.39A12.46,12.46,0,0,1,140.77,128.15Z" fill="#302c29"/><path d="M117.58,170.63l-1.83.87a51.58,51.58,0,0,1-5.1,1.84q-7.5,2.07-11.64,1.75a6.17,6.17,0,0,1-2-.48c-.64-.26-.88-.66-.72-1.19a.85.85,0,0,1,0-.24,1,1,0,0,0,0-.24,6,6,0,0,1,.72-1.68h.16q6.45-.48,8.12-4a1.11,1.11,0,0,0-.87-1.68H104a6.56,6.56,0,0,0-2.07.72,12.74,12.74,0,0,0-5,4.15.76.76,0,0,1-.16.06,3.56,3.56,0,0,1-.65-.1,2.77,2.77,0,0,0-.68-.12.19.19,0,0,0-.16-.08l-.16-.08c-.37,0-.55.21-.55.63a.52.52,0,0,0,.16.43c-4.09,1.22-6.62,1-7.58-.74l-.08-.08a9.31,9.31,0,0,0,2.4-3.83,1.23,1.23,0,0,0,.07-.32q0-.24-.39-.24a.83.83,0,0,0-.4.16,1.68,1.68,0,0,0-.36.32c-.08.11-.19.24-.32.4s-.23.27-.28.32c-1,1.33-1.35,2.39-1,3.19-.74.74-1.32,1.3-1.75,1.67-.58.53-1.69,1.46-3.31,2.79s-2.82,2.36-3.62,3.11a22,22,0,0,0,1.59-8.21,5.8,5.8,0,0,0-.16-1.28c-.32-1.38-.8-1.72-1.43-1q-.4.56.24,1.11l.08.08a3.28,3.28,0,0,1,.59,1.93,16.55,16.55,0,0,1-6.57,1.5,8.77,8.77,0,0,1-4-.72,1.17,1.17,0,0,1-.15-.47c-.06-.27-.11-.51-.16-.72s-.12-.43-.2-.64a1.58,1.58,0,0,0-.32-.52.64.64,0,0,0-.44-.2c-.37,0-.58.14-.64.56a3.63,3.63,0,0,0,.42,1.41,54.32,54.32,0,0,1-9.42,7.68,18.87,18.87,0,0,1-5.74,2.47,3.14,3.14,0,0,1-3-.44,3.28,3.28,0,0,1-1-2.59,16.73,16.73,0,0,1,.44-3.35,14.71,14.71,0,0,1,1.12-3.11.63.63,0,0,0,1-.08c.37-.47.95-1.23,1.72-2.27s1.39-1.84,1.87-2.43c2-2.39,4.36-5.63,7.17-9.72s5.21-7.84,7.18-11.24a96.55,96.55,0,0,0,7.65-15.54c0-.11.12-.25.2-.44s.14-.36.2-.52a1.61,1.61,0,0,0,.08-.48l.07-.4c0-.47-.13-.71-.39-.71a1.84,1.84,0,0,0-.72.24,15.79,15.79,0,0,0-2.15,2.31q-3.1,3.9-7.26,10.2a236.23,236.23,0,0,0-12.59,21.2,97.5,97.5,0,0,0-4.14,8.85,1,1,0,0,0-.08.32A26.87,26.87,0,0,0,47.36,177a7,7,0,0,0,.24,2.55,2.52,2.52,0,0,0,1.68,1.56,5.1,5.1,0,0,0,2.35.16,14,14,0,0,0,2.43-.68,39,39,0,0,0,11.45-7.79,16.68,16.68,0,0,0-1.09,1.81,6,6,0,0,0-1,2.39,1.3,1.3,0,0,0,.64,1.28,2.31,2.31,0,0,0,1.6.08q2.77-.65,3-4.23a9.23,9.23,0,0,0-.24-2.23,8.39,8.39,0,0,0,2.24.48A18.53,18.53,0,0,0,79,171c0,.2,0,.39,0,.62a21.81,21.81,0,0,1-.47,3.67l-.48,1.83-.4,1.36a7.05,7.05,0,0,0-2,2.63,2.76,2.76,0,0,0-.16,1.15q0,.84.48.84a.56.56,0,0,0,.63-.32,3.31,3.31,0,0,0,.36-1.16,2.72,2.72,0,0,1,.2-.83l.56-1.76a1.54,1.54,0,0,1,.08-.32c.85-.84,2.32-2.15,4.42-3.9a46.43,46.43,0,0,0,4.58-4.22,2.48,2.48,0,0,0,1,.79c1.58,1.06,4.27,1,8-.08a2.32,2.32,0,0,0,.64-.08,5,5,0,0,0-.64,2.16q0,3,7.49,2a48.29,48.29,0,0,0,14.51-4.31.26.26,0,0,0,.16-.23C118,170.6,117.84,170.52,117.58,170.63Zm-15.38-3.51c1.43-.64,2.25-.82,2.47-.56v.08a.24.24,0,0,1-.08.16V167a5.71,5.71,0,0,1-1.64,1.95,7.63,7.63,0,0,1-2.47,1.28,9.72,9.72,0,0,1-2.91.44A9.68,9.68,0,0,1,102.2,167.12Zm-48.38-5.34a230.94,230.94,0,0,1,12.51-21.12q4.38-6.61,7.26-10.2a14,14,0,0,1,2.07-2.23l.32-.16h.08a1.07,1.07,0,0,1-.08.55,32.47,32.47,0,0,1-2.71,6.94q-1.51,3-3.39,6.45T66,148.71q-2,3.27-4.22,6.45t-4.26,6c-1.39,1.89-2.71,3.63-4,5.22A18.36,18.36,0,0,1,50,169.83C50.9,167.6,52.17,164.91,53.82,161.78Zm11.72,15.94c-1,.27-1.44.08-1.44-.56a3.84,3.84,0,0,1,.24-1.19,13.1,13.1,0,0,1,3-4.55,9.53,9.53,0,0,1,.48,2.87C67.77,176.31,67,177.45,65.54,177.72Zm10.75,3.59a3.12,3.12,0,0,1,.88-1.76A6.53,6.53,0,0,1,76.29,181.31Zm11.64-13.87a5.85,5.85,0,0,1,1.2-1.12h.08v.32A11,11,0,0,1,87,170.31,3.84,3.84,0,0,1,87.93,167.44Z" fill="#302c29"/></svg>