<svg id="Layer_1" data-name="Layer 1" xmlns="http://www.w3.org/2000/svg" viewBox="0 0 455.55 112.81"><path d="M86.28,61a.81.81,0,0,0,1.22-.1c.47-.61,1.2-1.58,2.19-2.9s1.78-2.36,2.39-3.11q3.77-4.58,9.16-12.42t9.17-14.35a122.81,122.81,0,0,0,9.77-19.86c.07-.13.15-.32.25-.56a6.39,6.39,0,0,0,.26-.66,1.86,1.86,0,0,0,.1-.61l.1-.51c0-.61-.17-.92-.51-.92a2.4,2.4,0,0,0-.91.31,21.38,21.38,0,0,0-2.75,3q-4,5-9.27,13A302.17,302.17,0,0,0,91.37,48.36a123.68,123.68,0,0,0-5.29,11.31.49.49,0,0,0,0,.11q-12.69,5.47-14.93,1A16.31,16.31,0,0,0,73,59,7.23,7.23,0,0,0,75,56.51c0-.68-.27-1-.82-1a4.07,4.07,0,0,0-2,.76,4.84,4.84,0,0,0-1.43,1.63A3.75,3.75,0,0,0,70.29,60c0,.14,0,.2.11.2A23.94,23.94,0,0,1,66,63.64l-1.53.61c-1.83.54-2.54.2-2.14-1a9.9,9.9,0,0,1,2-3.36l.92-1.22c.2-.41.1-.68-.31-.82a.94.94,0,0,0-.35-.1c-.11,0-.24.09-.41.26a3.42,3.42,0,0,0-.36.4,7.87,7.87,0,0,0-.41.87,6.43,6.43,0,0,0-.44.59l-.06,0a21.24,21.24,0,0,1-8.45,1.93,11.18,11.18,0,0,1-5.09-.91,1.46,1.46,0,0,1-.21-.61c-.07-.34-.13-.65-.2-.92a6.34,6.34,0,0,0-.26-.81,1.89,1.89,0,0,0-.4-.67.78.78,0,0,0-.56-.25c-.48-.07-.75.17-.82.71a5.61,5.61,0,0,0,.39,1.53h-1a35.21,35.21,0,0,0-12.93,2.85,6.43,6.43,0,0,0-1.83-1.33l-1.53-.81a62.77,62.77,0,0,0,8.55-6.72,12,12,0,0,0,2.14-3.15,1.61,1.61,0,0,0,.1-1.07c-.06-.51-.23-.77-.5-.77a1,1,0,0,0-.31-.1,5.18,5.18,0,0,0-2.24.41A20.61,20.61,0,0,0,30,54.27q-3.26,3.57-1.32,6a.46.46,0,0,0,.15.66.53.53,0,0,0,.66.05,4.21,4.21,0,0,0,1.78,1.07A5.06,5.06,0,0,1,33,63a64.92,64.92,0,0,0-20,12.83,20.76,20.76,0,0,0-3.46,4.28,6.16,6.16,0,0,0-.51,1.32c-.27.82-.1,1.36.51,1.63a6.45,6.45,0,0,0,2.55.41,15.12,15.12,0,0,0,5.49-1.43A33.65,33.65,0,0,0,31.31,71.78c.47-.68.81-1.15,1-1.43a15,15,0,0,0,.92-1.47,7.74,7.74,0,0,0,.81-1.83,7,7,0,0,0,.21-1.84,4,4,0,0,0-.51-2,36.14,36.14,0,0,1,12.62-2.75,6.56,6.56,0,0,1,1.16.08,18.82,18.82,0,0,0-3.2,4.5,7.57,7.57,0,0,0-1.22,3.06,1.64,1.64,0,0,0,.82,1.62,2.81,2.81,0,0,0,2,.1q3.57-.81,3.87-5.39a12,12,0,0,0-.3-2.85,10.59,10.59,0,0,0,2.85.61,23.54,23.54,0,0,0,10.13-1.55c-.07.15-.2.38-.41.73a3.72,3.72,0,0,0-.41.87,6.61,6.61,0,0,1-.25.87,1,1,0,0,0,0,.91c0,.61.41,1,1.22,1.22h.81c.34-.06.67-.13,1-.2a7.09,7.09,0,0,0,1-.3l.86-.36a4.78,4.78,0,0,0,.87-.51,4.42,4.42,0,0,1,.76-.46,3.91,3.91,0,0,0,.82-.56c.37-.3.59-.49.66-.56s.3-.27.71-.61a3,3,0,0,1,.71-.51c.62,1.22,2.07,1.83,4.38,1.83A32.24,32.24,0,0,0,85.79,60.6a33.07,33.07,0,0,0-2.06,7.52A8.92,8.92,0,0,0,84,71.37a3.22,3.22,0,0,0,2.14,2,6.54,6.54,0,0,0,3,.2,17.71,17.71,0,0,0,3.1-.86q8.06-3.27,17.11-12.32c.07-.07.07-.17,0-.31s-.38-.3-.51-.1A69.54,69.54,0,0,1,96.66,70a23.82,23.82,0,0,1-7.33,3.15c-1.7.41-3,.22-3.82-.56a4.16,4.16,0,0,1-1.22-3.31A20.84,20.84,0,0,1,84.85,65,18.31,18.31,0,0,1,86.28,61ZM92,48.67a295.09,295.09,0,0,1,16-27q5.61-8.45,9.27-13a19.1,19.1,0,0,1,2.64-2.85l.41-.2h.1a1.35,1.35,0,0,1-.1.71,41.3,41.3,0,0,1-3.46,8.86q-1.93,3.87-4.33,8.24t-5,8.55q-2.59,4.19-5.39,8.25t-5.45,7.69Q94,51.53,91.57,54.57A23.24,23.24,0,0,1,87.09,59Q88.83,54.68,92,48.67ZM29,59.87c-1.08-1.43-.64-3.22,1.33-5.4a19.25,19.25,0,0,1,7.63-4.88,4.61,4.61,0,0,1,1.94-.31c.34,0,.51.14.51.41a.94.94,0,0,1-.21.81,6.82,6.82,0,0,1-2.14,3,26.24,26.24,0,0,1-7.94,5.81,1.43,1.43,0,0,1-.51.25A1.67,1.67,0,0,0,29,59.87Zm4.58,6.82A13.06,13.06,0,0,1,31,71.58a38.81,38.81,0,0,1-8.45,7.63q-6,3.77-10.49,4.07a4.23,4.23,0,0,1-2.54-.51,2.37,2.37,0,0,1,.3-2.54,16,16,0,0,1,3.57-4.17,64.32,64.32,0,0,1,20-12.63A3.77,3.77,0,0,1,33.54,66.69ZM45.76,69c-1.22.34-1.83.1-1.83-.71a5.1,5.1,0,0,1,.3-1.53A16.92,16.92,0,0,1,48,61a12.08,12.08,0,0,1,.61,3.66Q48.61,68.52,45.76,69ZM73,57.12c-.13.2-.88,1.05-2.24,2.55A3,3,0,0,1,73,57.12Z" fill="#302c29"/><path d="M241.83,55.08a1,1,0,0,0-.71,1.12c0,.41.31.55.92.41s1-.44,1-.92S242.65,54.88,241.83,55.08Z" fill="#302c29"/><path d="M277.46,56.61c.68-.13,1-.44,1-.92s-.41-.81-1.22-.61a1,1,0,0,0-.71,1.12C276.55,56.61,276.85,56.75,277.46,56.61Z" fill="#302c29"/><path d="M329.28,59.77a28.74,28.74,0,0,0-6.41,4.37,112.29,112.29,0,0,0-11.4,12c.4-.68,1-1.68,1.68-3s1.23-2.32,1.57-3l3.57-6.72a27.76,27.76,0,0,1,3.87-6.11c.54-.54.71-1,.51-1.42a1,1,0,0,0-1.12-.61,1.4,1.4,0,0,0-1.12.61V56q-3.68,5.3-12.63,9.87-6.41,2.86-6.72-.61a7.41,7.41,0,0,1,2.34-5.39l.46-.41.61-.51a1.8,1.8,0,0,0,.46-.61c.14-.27.1-.47-.1-.61a.69.69,0,0,0-.61-.25,1,1,0,0,0-.61.51,8.51,8.51,0,0,0-.51.81c-.14.24-.24.42-.31.56s-.1.2-.21.38l-.09,0A26.45,26.45,0,0,1,297.83,62a15.64,15.64,0,0,1-6.27,1q-3.3-.15-4-2.8c.21-.33.49-.88.87-1.62a17,17,0,0,1,1.27-2.14q1.94-2.85,9.57-15.58a3.35,3.35,0,0,0,.56,0,4.93,4.93,0,0,1,.56-.05q10.19-.61,13-.61h3.67c.4,0,.95,0,1.63.05s1.18,0,1.52,0,.58,0,.92.05l1,.1.91.1.87.11a7.34,7.34,0,0,0,.81.05.27.27,0,0,0,.31-.31c0-.2-.1-.3-.31-.3a11,11,0,0,0-2-.21c-.28,0-.68,0-1.23-.05s-.95,0-1.22,0-.85,0-1.52-.05-1.23,0-1.63,0q-5.61,0-16.8.71l-.41,0a2.24,2.24,0,0,1-.41.05c.41-.67,1-1.73,1.79-3.15s1.39-2.56,1.83-3.41l1.68-3.26c.68-1.32,1.25-2.51,1.73-3.56s.95-2.23,1.42-3.52.92-2.57,1.33-3.86c.06-.75.1-1.23.1-1.43a.76.76,0,0,1-.1-.31.87.87,0,0,0-.51-.3.21.21,0,0,0-.15.05.25.25,0,0,1-.16,0,8.94,8.94,0,0,0-2.34,2.44,130,130,0,0,0-12.52,20.47,80.18,80.18,0,0,1-9.88.4q-7.21-.41-7.22-1.52a.61.61,0,0,0-.82.3.74.74,0,0,0,.41.82,4.16,4.16,0,0,0,1.42.45,14.51,14.51,0,0,0,1.68.21c.51,0,1,.05,1.48.05s1.63.1,3.05.1a91,91,0,0,0,9.68-.41q-3.78,7.55-5,10.39-2,5.09-1.73,7.74l-.41.51c-.07,0-.1,0-.1.1a.67.67,0,0,0,0,.52,20.7,20.7,0,0,1-6.9,3.14,6.5,6.5,0,0,1-3.05-.1c-.95-.27-1.32-.81-1.12-1.63a1.86,1.86,0,0,1,.1-.61,2,2,0,0,1,.26-.51,2,2,0,0,0,.25-.46,1.19,1.19,0,0,0,.1-.45v-.21c0-.47-.18-.73-.56-.76a1,1,0,0,0-.86.25,7,7,0,0,0-.27.91c-6.75,2.47-10.85,2.45-12.25-.09l-.11-.1a11.87,11.87,0,0,0,3.06-4.89,1.59,1.59,0,0,0,.1-.41q0-.3-.51-.3a1,1,0,0,0-.51.2,2.11,2.11,0,0,0-.46.41l-.4.51a4.72,4.72,0,0,1-.36.4q-1.94,2.55-1.32,4.08c-.95.95-1.7,1.66-2.24,2.13q-1.12,1-4.23,3.57c-2.07,1.69-3.61,3-4.63,4a28,28,0,0,0,2-10.49,7.43,7.43,0,0,0-.21-1.63c-.4-1.76-1-2.2-1.83-1.32-.34.47-.24,1,.31,1.42l.1.1a4.13,4.13,0,0,1,.76,2.43s0,0,0,0a21.67,21.67,0,0,1-7.53,3.56,6.54,6.54,0,0,1-3.06-.1c-1-.27-1.32-.81-1.12-1.63a1.87,1.87,0,0,1,.11-.61,1.73,1.73,0,0,1,.25-.51,1.69,1.69,0,0,0,.25-.46,1.22,1.22,0,0,0,.11-.45v-.21c0-.47-.19-.73-.56-.76a1,1,0,0,0-.87.25,8.32,8.32,0,0,0-.28,1A25.8,25.8,0,0,1,234.2,62a15.61,15.61,0,0,1-6.26,1q-3.31-.15-4-2.8c.21-.33.5-.88.87-1.62a17,17,0,0,1,1.27-2.14q1.94-2.85,9.57-15.58a3.35,3.35,0,0,0,.56,0,5.13,5.13,0,0,1,.56-.05q10.19-.61,13-.61h3.67c.41,0,.95,0,1.63.05s1.19,0,1.53,0,.57,0,.91.05l1,.1.92.1.86.11a7.34,7.34,0,0,0,.81.05.27.27,0,0,0,.31-.31c0-.2-.1-.3-.31-.3a11,11,0,0,0-2-.21c-.27,0-.68,0-1.22-.05s-.95,0-1.22,0-.85,0-1.53-.05-1.22,0-1.63,0q-5.59,0-16.8.71l-.41,0a2.26,2.26,0,0,1-.4.05c.4-.67,1-1.73,1.78-3.15s1.39-2.56,1.83-3.41l1.68-3.26c.68-1.32,1.26-2.51,1.73-3.56s1-2.23,1.43-3.52.91-2.57,1.32-3.86c.07-.75.1-1.23.1-1.43a.76.76,0,0,1-.1-.31.82.82,0,0,0-.51-.3.21.21,0,0,0-.15.05.25.25,0,0,1-.15,0,8.94,8.94,0,0,0-2.35,2.44,130,130,0,0,0-12.52,20.47,80,80,0,0,1-9.87.4q-7.23-.41-7.23-1.52a.61.61,0,0,0-.82.3.75.75,0,0,0,.41.82,4.22,4.22,0,0,0,1.43.45,14.24,14.24,0,0,0,1.68.21c.51,0,1,.05,1.47.05s1.63.1,3.06.1a90.84,90.84,0,0,0,9.67-.41q-3.76,7.55-5,10.39c-1.36,3.39-1.93,6-1.73,7.74l-.41.51a.09.09,0,0,0-.1.1.68.68,0,0,0,0,.54A33.88,33.88,0,0,1,219,61.7a12.77,12.77,0,0,1-4.38,1,2.12,2.12,0,0,1-1.83-.71c-.48-.48-.55-1.26-.2-2.34a.93.93,0,0,0,.81.2,1.29,1.29,0,0,0,.71-.51c.21-.07.26-.24.16-.51a2.37,2.37,0,0,1-.16-.46,5.89,5.89,0,0,0-.71-.66,17.73,17.73,0,0,0,1-1.83.63.63,0,0,0-1.12-.51l-.1.1a7.49,7.49,0,0,1-1.43,1.63l-1.12-.2a10.29,10.29,0,0,0-4.17.66,5.75,5.75,0,0,0-2.95,2.19,1.89,1.89,0,0,0-.11.25l-2.24,1.07a64.05,64.05,0,0,1-6.51,2.34q-9.57,2.66-14.87,2.24a8.21,8.21,0,0,1-2.54-.61c-.82-.34-1.12-.85-.92-1.53a1.65,1.65,0,0,1,0-.3,1.13,1.13,0,0,0,.05-.31,8.17,8.17,0,0,1,.92-2.14h.2q8.25-.6,10.39-5.09a1.18,1.18,0,0,0,.2-.81,1.17,1.17,0,0,0-1.32-1.32h-.71a8.11,8.11,0,0,0-2.65.91,16.12,16.12,0,0,0-6.41,5.4,3.77,3.77,0,0,1-1-.15,3.23,3.23,0,0,0-.87-.16.3.3,0,0,0-.2-.1l-.21-.1c-.47,0-.71.27-.71.81s.27.72.82.72h.61a3.71,3.71,0,0,0,.87-.08,41.66,41.66,0,0,1-8.1,9.54A5,5,0,0,1,166,71.58c-.27,0-.41-.38-.41-1.12a6.9,6.9,0,0,1,.41-2.14,48.92,48.92,0,0,0,2.14-6.52,4.91,4.91,0,0,0,0-1.52,12.42,12.42,0,0,0-.46-1.68,4.26,4.26,0,0,1-.31-1.28.76.76,0,0,1-.1-.86,1.34,1.34,0,0,0,.15-.71c0-.11.09-.33.36-.67s.42-.52.46-.56l.46-.45q.41-.42.51-.51c.47-.34.44-.72-.11-1.12s-.81-.27-1,.4h-.11a8.2,8.2,0,0,0-1.22,2.55l-.91,1.22L163,60v0a.84.84,0,0,0-.2.08,1.66,1.66,0,0,1-.46.15,2.61,2.61,0,0,0-.56.21,4.36,4.36,0,0,1-.61.25,116.7,116.7,0,0,1-14.66,3.67,34,34,0,0,1-7.44.61,4,4,0,0,1-2.13-.51c-.55-.34-.65-.85-.31-1.53q2.75-4.17,10.28-7a28.22,28.22,0,0,1,4.18-1.28c2-.5,3.05-.52,3.05,0a2.33,2.33,0,0,1-.91,1.48,2.31,2.31,0,0,0-.92,1.48v.1a.91.91,0,0,0,1.12.92h.1a4.26,4.26,0,0,0,2-3.47q0-1.72-1.83-1.83a7.54,7.54,0,0,0-3.16.41,34.69,34.69,0,0,0-12.32,6.41,6.27,6.27,0,0,0-2,2.55c-.61.88-.56,1.54.16,2a5,5,0,0,0,2.69.66,7.56,7.56,0,0,0,2.55,0q8.15-.6,21.89-4.78c.26-.07.33-.2.21-.38l2.43-3.18a1.58,1.58,0,0,0,.31-.41,5.14,5.14,0,0,0,.3,1.68c.21.58.39,1.15.56,1.73a4.26,4.26,0,0,1,.16,1.68A11.14,11.14,0,0,1,166.3,66a10.85,10.85,0,0,0-1.23,4.27c0,1.16.31,1.73.92,1.73a4.9,4.9,0,0,0,2.65-1.22,23.63,23.63,0,0,0,3.25-3.26,49.32,49.32,0,0,0,4-4.76,3.88,3.88,0,0,0-.1.79q0,3.87,9.57,2.55a62.25,62.25,0,0,0,17.93-5.22s0,.08,0,.13c0,.75.54,1,1.63.91a6.8,6.8,0,0,0,1.83-.45,8.91,8.91,0,0,0,1.48-.72c.37-.23.86-.57,1.47-1a7.29,7.29,0,0,1,1.43-.87,7.82,7.82,0,0,1,1.12.41,2.23,2.23,0,0,0-.2.81,2.19,2.19,0,0,0,.5,2.24,3.27,3.27,0,0,0,2.24.71c.27,0,1.06-.1,2.35-.3a55,55,0,0,0,5.81-1.92.45.45,0,0,0,.39-.12A3.36,3.36,0,0,0,225.54,63a7.44,7.44,0,0,0,2.85.67,13.9,13.9,0,0,0,2.75-.16,14.7,14.7,0,0,0,2.85-.81c1.09-.41,1.9-.75,2.45-1s1.21-.59,2.05-1a3.82,3.82,0,0,0,.7,2.41,3.75,3.75,0,0,0,2.34,1.06,7.06,7.06,0,0,0,3-.35c1.05-.34,2-.68,2.75-1s1.48-.68,2.09-1a11,11,0,0,0,1.17-.71l.85-.57c0,.25,0,.5,0,.77a27.76,27.76,0,0,1-.61,4.69l-.61,2.34-.51,1.73a9.2,9.2,0,0,0-2.54,3.36,3.56,3.56,0,0,0-.21,1.48c0,.71.21,1.06.61,1.06a.73.73,0,0,0,.82-.4,4.46,4.46,0,0,0,.46-1.48,3.44,3.44,0,0,1,.25-1.07l.71-2.24a1.78,1.78,0,0,1,.11-.41q1.62-1.62,5.65-5a60,60,0,0,0,5.85-5.4,3,3,0,0,0,1.22,1c2.16,1.44,5.94,1.28,11.31-.43a4,4,0,0,0,.7,2.57A3.75,3.75,0,0,0,277,64.19a7.07,7.07,0,0,0,3-.35c1.05-.34,2-.68,2.75-1s1.47-.68,2.08-1a10.09,10.09,0,0,0,1.17-.71l.49-.32a.43.43,0,0,0,.48-.09A3.36,3.36,0,0,0,289.17,63a7.36,7.36,0,0,0,2.85.67,13.9,13.9,0,0,0,2.75-.16,14.7,14.7,0,0,0,2.85-.81c1.09-.41,1.9-.75,2.44-1s1.15-.56,1.93-.92l-.09.16a9.22,9.22,0,0,0-1.07,2.34,6,6,0,0,0-.15,2.09,1.82,1.82,0,0,0,.91,1.73,4.13,4.13,0,0,0,2.34.4,16.56,16.56,0,0,0,4-1.32A62.47,62.47,0,0,0,315,61.9a11.06,11.06,0,0,0,1.53-1q.92-.66,1.68-1.17c.51-.34,1-.65,1.47-.92a33.77,33.77,0,0,1-2,4.38l-3.36,6.51q-.72,1.42-4.69,9c-.27.27-.62.66-1.07,1.17s-.76.9-1,1.17a194.1,194.1,0,0,0-13.24,18.74,33.18,33.18,0,0,0-3.66,7.33c0,.47.2.71.61.71h.2a.65.65,0,0,0,.41-.31,17.8,17.8,0,0,0,3.87-4.37q2.44-3.57,4.73-7.38t5.7-9.93q3.42-6.1,4.43-7.84,3.47-4.17,7.23-8.15c1.22-1.28,2.12-2.22,2.7-2.79s1.42-1.38,2.54-2.4a26.18,26.18,0,0,1,3.26-2.54,21.78,21.78,0,0,1,3.21-1.73.34.34,0,0,0,.2-.31C329.72,59.67,329.55,59.56,329.28,59.77ZM183.91,55.49c1.83-.81,2.88-1.05,3.15-.71v.1a.26.26,0,0,1-.1.2v.21a7.26,7.26,0,0,1-2.09,2.49,9.92,9.92,0,0,1-3.15,1.63A12.46,12.46,0,0,1,178,60,12.42,12.42,0,0,1,183.91,55.49Zm21.48,5.19a1.9,1.9,0,0,1-.61.1h-.31c0-.06.07-.13.2-.2q1.53-1.94,5.3-1.93C207.8,59.67,206.27,60.34,205.39,60.68ZM239.7,25q1.92-2.85,3.05-4.28a4.82,4.82,0,0,0,.51-.66,4.52,4.52,0,0,1,.51-.66l.51-.51a2.86,2.86,0,0,1,.71-.51,2.43,2.43,0,0,1-.1,1.12A73.74,73.74,0,0,1,241,29q-2.85,5.91-6.11,11.3a12.62,12.62,0,0,1-1.43.15l-1.57.11c-.51,0-1,.05-1.38.05Q236.65,29.74,239.7,25ZM225.24,51.83a115.34,115.34,0,0,1,5.09-10.59c1-.07,2.51-.21,4.48-.41q-5.4,9.47-9.37,15.07a11.55,11.55,0,0,1-1.12,1.58,14.51,14.51,0,0,0-.91,1.17A18.62,18.62,0,0,1,225.24,51.83Zm22.7,21.78a4,4,0,0,1,1.12-2.24A8.46,8.46,0,0,1,247.94,73.61ZM262.81,55.9a7.71,7.71,0,0,1,1.52-1.43h.1v.41a13.77,13.77,0,0,1-2.85,4.68A4.93,4.93,0,0,1,262.81,55.9ZM303.32,25q1.94-2.85,3.06-4.28a4.82,4.82,0,0,0,.51-.66,4.52,4.52,0,0,1,.51-.66l.5-.51a2.92,2.92,0,0,1,.72-.51,2.59,2.59,0,0,1-.1,1.12A73.74,73.74,0,0,1,304.65,29q-2.85,5.91-6.11,11.3a12.62,12.62,0,0,1-1.43.15l-1.58.11c-.5,0-1,.05-1.37.05Q300.27,29.74,303.32,25ZM288.87,51.83A115.34,115.34,0,0,1,294,41.24c1-.07,2.51-.21,4.48-.41Q293,50.3,289.07,55.9A12.5,12.5,0,0,1,288,57.48c-.48.57-.78,1-.92,1.17A18.47,18.47,0,0,1,288.87,51.83Zm18.22,31.45q-4.38,8.06-7.53,13.24a80.05,80.05,0,0,1-6.42,9.36,10.94,10.94,0,0,1-1.73,1.53h-.3v-.71a41.89,41.89,0,0,1,3.56-6.72c.68-1.09,1.41-2.22,2.19-3.41s1.49-2.24,2.14-3.16,1.44-2,2.39-3.3L303.68,87l2.44-3.31c1.05-1.42,1.82-2.44,2.29-3A15.71,15.71,0,0,1,307.09,83.28Z" fill="#302c29"/><path d="M446.05,60l-2.34,1.12a63.42,63.42,0,0,1-6.52,2.34q-9.56,2.66-14.86,2.24a8.21,8.21,0,0,1-2.54-.61c-.82-.34-1.12-.85-.92-1.53a1.65,1.65,0,0,1,.05-.3,1.13,1.13,0,0,0,.05-.31,7.84,7.84,0,0,1,.92-2.14h.2q8.25-.6,10.39-5.09a1.18,1.18,0,0,0,.2-.81,1.17,1.17,0,0,0-1.32-1.32h-.72a8.14,8.14,0,0,0-2.64.91,16.31,16.31,0,0,0-6.36,5.31l-.21.08a4.85,4.85,0,0,1-.82-.14,3.24,3.24,0,0,0-.86-.16.34.34,0,0,0-.2-.1l-.21-.1c-.47,0-.71.27-.71.81a.62.62,0,0,0,.22.54c-5.23,1.56-8.47,1.26-9.69-.94l-.1-.1a11.83,11.83,0,0,0,3.05-4.89,1.78,1.78,0,0,0,.11-.41q0-.3-.51-.3a.92.92,0,0,0-.51.2,1.9,1.9,0,0,0-.46.41l-.41.51-.35.4q-1.94,2.55-1.33,4.08c-.95.95-1.69,1.66-2.24,2.13q-1.11,1-4.22,3.57c-2.07,1.69-3.62,3-4.63,4a28.17,28.17,0,0,0,2-10.49,8,8,0,0,0-.2-1.63q-.61-2.64-1.83-1.32c-.34.47-.24,1,.3,1.42l.1.1a4.12,4.12,0,0,1,.77,2.47,21.2,21.2,0,0,1-8.4,1.91,11.18,11.18,0,0,1-5.09-.91,1.46,1.46,0,0,1-.21-.61c-.06-.34-.13-.65-.2-.92a8.36,8.36,0,0,0-.25-.81,1.91,1.91,0,0,0-.41-.67.78.78,0,0,0-.56-.25c-.48-.07-.75.17-.82.71a4.75,4.75,0,0,0,.54,1.8,68.72,68.72,0,0,1-12,9.81A23.92,23.92,0,0,1,362,73.1c-1.7.41-3,.22-3.82-.56a4.16,4.16,0,0,1-1.22-3.31,20.84,20.84,0,0,1,.56-4.27,18.31,18.31,0,0,1,1.43-4,.82.82,0,0,0,1.22-.1c.47-.61,1.2-1.58,2.19-2.9s1.78-2.36,2.39-3.11q3.77-4.58,9.16-12.42T383,28.11a122.14,122.14,0,0,0,9.78-19.86c.07-.13.15-.32.25-.56s.19-.46.26-.66a2.16,2.16,0,0,0,.1-.61l.1-.51c0-.61-.17-.92-.51-.92a2.4,2.4,0,0,0-.91.31,20.77,20.77,0,0,0-2.75,3q-4,5-9.27,13A297.48,297.48,0,0,0,364,48.36q-3.76,7.34-5.3,11.31a2.17,2.17,0,0,0-.1.4,34.75,34.75,0,0,0-2.24,8.05,8.92,8.92,0,0,0,.31,3.25,3.2,3.2,0,0,0,2.14,2,6.53,6.53,0,0,0,3,.2,17.71,17.71,0,0,0,3.1-.86q6.94-2.82,14.63-10a22.42,22.42,0,0,0-1.39,2.31,7.29,7.29,0,0,0-1.22,3.06,1.63,1.63,0,0,0,.81,1.62,2.84,2.84,0,0,0,2,.1q3.56-.81,3.87-5.39a12,12,0,0,0-.31-2.85,10.59,10.59,0,0,0,2.85.61,23.75,23.75,0,0,0,10.57-1.71c0,.25,0,.51,0,.79a27.76,27.76,0,0,1-.61,4.69l-.61,2.34-.51,1.73a9.14,9.14,0,0,0-2.55,3.36,3.79,3.79,0,0,0-.2,1.48c0,.71.2,1.06.61,1.06a.71.71,0,0,0,.81-.4,4,4,0,0,0,.46-1.48,3.3,3.3,0,0,1,.26-1.07l.71-2.24a1.59,1.59,0,0,1,.1-.41q1.63-1.62,5.65-5a61.62,61.62,0,0,0,5.86-5.4A3,3,0,0,0,408,61q3,2,10.28-.11a3,3,0,0,0,.81-.1,6.51,6.51,0,0,0-.81,2.75q0,3.87,9.57,2.55a61.81,61.81,0,0,0,18.53-5.5.33.33,0,0,0,.2-.3C446.56,59.94,446.39,59.84,446.05,60Zm-81.44-11.3a295.09,295.09,0,0,1,16-27q5.6-8.45,9.27-13a18.58,18.58,0,0,1,2.64-2.85l.41-.2h.1a1.35,1.35,0,0,1-.1.71,41.3,41.3,0,0,1-3.46,8.86q-1.93,3.87-4.33,8.24t-5,8.55q-2.6,4.19-5.39,8.25t-5.45,7.69q-2.64,3.62-5.09,6.66A23.24,23.24,0,0,1,359.72,59Q361.45,54.68,364.61,48.67Zm15,20.36c-1.22.34-1.83.1-1.83-.71a4.86,4.86,0,0,1,.31-1.53,16.75,16.75,0,0,1,3.76-5.8,12.08,12.08,0,0,1,.61,3.66Q382.42,68.52,379.57,69Zm13.75,4.58a3.9,3.9,0,0,1,1.12-2.24A8.77,8.77,0,0,1,393.32,73.61ZM408.18,55.9a8,8,0,0,1,1.53-1.43h.1v.41A13.93,13.93,0,0,1,407,59.56,4.92,4.92,0,0,1,408.18,55.9Zm18.22-.41c1.84-.81,2.89-1.05,3.16-.71v.1a.3.3,0,0,1-.1.2v.21a7.26,7.26,0,0,1-2.09,2.49,10,10,0,0,1-3.16,1.63,12.35,12.35,0,0,1-3.71.56C421.58,58.21,423.55,56.71,426.4,55.49Z" fill="#302c29"/><path d="M121.06,52.69a3,3,0,1,0,3,3A3,3,0,0,0,121.06,52.69Z" fill="#302c29"/><path d="M345.65,52.69a3,3,0,1,0,3,3A3,3,0,0,0,345.65,52.69Z" fill="#302c29"/></svg>