<svg id="Layer_1" data-name="Layer 1" xmlns="http://www.w3.org/2000/svg" viewBox="0 0 225.49 127.99"><path d="M199.86,78.87a1.48,1.48,0,0,0-1.09,1.71c0,.62.47.83,1.4.62s1.56-.67,1.56-1.4C201.73,78.87,201.1,78.56,199.86,78.87Z" fill="#302c29"/><path d="M215,86.34q-.32-.47-.63-.15c-4.46,3-8.31,4.83-11.52,5.45a10,10,0,0,1-4.67-.16c-1.46-.41-2-1.24-1.72-2.49a2.76,2.76,0,0,1,.16-.93,2.59,2.59,0,0,1,.39-.78,3.62,3.62,0,0,0,.39-.7,2,2,0,0,0,.15-.7v-.31c0-.73-.29-1.12-.85-1.17a1.56,1.56,0,0,0-1.33.39,11.79,11.79,0,0,0-.49,1.73,13.57,13.57,0,0,1-9.48,3.72H184q-1.25,0-9.19-1.4A52.1,52.1,0,0,1,167.93,87q7.15-4.36,10-5.77c2.8-1.34,4.72-2,5.76-2,.62,0,.94.16.94.47V80a.48.48,0,0,0,.46.31c.52-.1.68-.31.47-.62,0-.94-.73-1.41-2.18-1.41l-2.18.47a80.18,80.18,0,0,0-10.9,5.61l-3.59,1.87-.15.15L164.19,86v-.15c1.46-.52,3.22-1.92,5.3-4.21q6.22-6.37,15.26-20.4a378,378,0,0,0,22.12-40.34q3.74-8.41,4.51-12.15a2.36,2.36,0,0,0,.16-.62V7.38a.42.42,0,0,0-.47-.47h-.47l-.31.31a.43.43,0,0,1-.31.16,46.16,46.16,0,0,0-3.42,4.05q-2.34,3.27-5.77,8.88-17.28,26.79-36.6,64.16a1.66,1.66,0,0,1-.93.32,2.2,2.2,0,0,1-.86-.16c-.26-.1-.44-.18-.54-.23a.25.25,0,0,1-.16-.24.79.79,0,0,0-1.25,0,1,1,0,0,0-.15,1.33,1.44,1.44,0,0,0,1.24.7,5.72,5.72,0,0,0-.92.08.53.53,0,0,0-.23,0,7.13,7.13,0,0,0-2.65,1.2c-1.26.55-2.53,1-3.83,1.48a19.52,19.52,0,0,1-6.69,1.56,3.23,3.23,0,0,1-2.81-1.09c-.72-.73-.83-1.92-.31-3.58a1.46,1.46,0,0,0,1.25.31,1.93,1.93,0,0,0,1.09-.78c.31-.1.39-.36.23-.78a5.07,5.07,0,0,1-.23-.7,8.14,8.14,0,0,0-1.09-1,26.37,26.37,0,0,0,1.56-2.81,1,1,0,0,0-1.72-.77l-.15.15A11.85,11.85,0,0,1,142.86,82l-1.72-.31a15.86,15.86,0,0,0-6.38,1A8.82,8.82,0,0,0,130.24,86c-.05.09-.07.19-.12.29l0,0a65.18,65.18,0,0,1-13.24,15.89c-1.66,1.25-2.86,1.87-3.58,1.87q-.63,0-.63-1.71a10.49,10.49,0,0,1,.63-3.28,75,75,0,0,0,3.27-10,7.17,7.17,0,0,0-.08-2.34,18,18,0,0,0-.7-2.57,6.71,6.71,0,0,1-.47-1.95,1.17,1.17,0,0,1-.15-1.32,2.38,2.38,0,0,0,.23-1.09c-.05-.15.13-.49.54-1s.65-.8.71-.86l.7-.7.77-.78q1.09-.78-.15-1.71c-.73-.62-1.25-.41-1.56.62h-.15c-1.25,2.08-1.87,3.38-1.87,3.9L113,81.2l-4.21,5.14v.15l-3.27,1.57a99.64,99.64,0,0,1-10,3.58q-14.64,4-22.74,3.43a12.73,12.73,0,0,1-3.89-.94c-1.25-.52-1.71-1.3-1.4-2.34a1.75,1.75,0,0,1,.08-.46,2.19,2.19,0,0,0,.07-.47A12,12,0,0,1,69,87.59h.31Q82,86.66,85.23,79.8a1.77,1.77,0,0,0,.31-1.24,1.79,1.79,0,0,0-2-2H82.43a12.78,12.78,0,0,0-4.05,1.4q-6.69,3.43-9.81,8.26A5.58,5.58,0,0,1,67.09,86a5.68,5.68,0,0,0-1.32-.23.47.47,0,0,0-.32-.15l-.31-.16c-.72,0-1.09.42-1.09,1.25s.42,1.09,1.25,1.09h.93c.35,0,.64,0,.89,0-2.94,2.61-5.57,3.93-7.89,3.93h-.78q-2-.31-3.43-3.12c-.1-.31-.44-1.34-1-3.11a13.53,13.53,0,0,0-1.87-4,2.78,2.78,0,0,0-2.88-1q-5.46.93-11.37,7.63l-2.34,2.65a13.1,13.1,0,0,1-.93,1.08,34.4,34.4,0,0,0,2-10.12q0-4-3-4.36H32.13q-3.75.78-8.57,5a6.83,6.83,0,0,0,0-2,8.3,8.3,0,0,0-.93-3h-.16a.76.76,0,0,0-.78-.39.92.92,0,0,0-.7.55.86.86,0,0,0,.08.93q1.39,1.88.47,5.76a73.71,73.71,0,0,0-9.66,12.93,8.33,8.33,0,0,0-1.4,4.21.82.82,0,0,0,.93.93,4.28,4.28,0,0,0,1.09-.16,13.23,13.23,0,0,0,4.05-3.73A31.6,31.6,0,0,0,23.4,83.85c3.12-3.22,6-5.14,8.73-5.76a2.36,2.36,0,0,0,.62-.16h.62q2.34.31,2.34,3.74a22.41,22.41,0,0,1-2,9.42,27.43,27.43,0,0,1-5,7.56,1.47,1.47,0,0,0,.47,1.87c.83.62,1.5.52,2-.31v-.32a36,36,0,0,0,2.18-4.51q.93-1.41,3-4c2.8-3.64,5.19-6,7.17-7.17q5.45-4.35,7.32-2.8A6.62,6.62,0,0,1,53.07,85a28.4,28.4,0,0,0,2,4.91,4.4,4.4,0,0,0,3.35,2.49h.78a12.16,12.16,0,0,0,7.9-3.31,7.86,7.86,0,0,0-.59,2.68q0,5.92,14.64,3.9a94.49,94.49,0,0,0,28.35-8.41.49.49,0,0,0,.31-.47,1.33,1.33,0,0,0,0-.21l3.77-4.93a2.54,2.54,0,0,0,.47-.62,7.72,7.72,0,0,0,.46,2.57c.31.88.6,1.77.86,2.65a6.16,6.16,0,0,1,.23,2.57,16.8,16.8,0,0,1-1.87,6.69,16.82,16.82,0,0,0-1.87,6.54c0,1.77.47,2.65,1.41,2.65s2.38-.62,4-1.87a37.34,37.34,0,0,0,5-5,75.46,75.46,0,0,0,7.57-9.42c.24.73,1,1,2.4.85a10.74,10.74,0,0,0,2.8-.7,12.6,12.6,0,0,0,2.26-1.09c.57-.36,1.32-.88,2.26-1.56a11.63,11.63,0,0,1,2.18-1.32,13.66,13.66,0,0,1,1.71.62,3.56,3.56,0,0,0-.31,1.25c-.31,1.56-.06,2.7.78,3.43A5,5,0,0,0,147.37,91c.42,0,1.61-.16,3.59-.47,1.44-.36,3.16-.89,5.13-1.56l-.15.16c-1.25,1.76-1.87,2.85-1.87,3.27a1.1,1.1,0,0,0,1.25,1.24h.77a6.48,6.48,0,0,0,.7-.39l.63-.38a7.14,7.14,0,0,1,.62-.39l.55-.32a3.85,3.85,0,0,0,.54-.39,3.7,3.7,0,0,1,.55-.38c.1-.06.31-.18.62-.39a4.89,4.89,0,0,0,.62-.47q-6.22,12.3-9.34,20.09a14.26,14.26,0,0,1-.7,1.87c-.37.83-.63,1.43-.78,1.79s-.34.83-.55,1.4a7.61,7.61,0,0,0-.39,1.64c0,.52-.07,1.06-.07,1.63a1.9,1.9,0,0,0,.7,1.48,2.18,2.18,0,0,0,1.48.63,1.24,1.24,0,0,0,1.4-1.41c0-.72-.42-1.14-1.25-1.24a.58.58,0,0,0-.08-.31.74.74,0,0,1-.07-.32,20.82,20.82,0,0,1,1.55-6.69q2.34-7.32,9.35-21.18l2-1.33a28.91,28.91,0,0,1,2.49-1.48c.94.21,2.26.52,4,.94l3.81.93a72.29,72.29,0,0,0,12.31,1.72,5.36,5.36,0,0,0,.62-.08,5.14,5.14,0,0,1,.78-.08,13.3,13.3,0,0,0,6.58-2.6,5.44,5.44,0,0,0,1.05,3.22,5.75,5.75,0,0,0,3.58,1.64,11.19,11.19,0,0,0,4.6-.55c1.6-.52,3-1,4.2-1.55s2.26-1,3.19-1.56a17.23,17.23,0,0,0,1.79-1.09L214.81,87C215,86.86,215.07,86.66,215,86.34ZM190.51,38.69q11.22-19.17,16.67-26.64,2.64-3.42,3.27-4.05a1.27,1.27,0,0,0,.47-.15h.15v.62l-.62,3.12a109.4,109.4,0,0,1-8.26,18.53,292.36,292.36,0,0,1-26,43.14Q170,81.52,165.28,84.47,175.09,64.85,190.51,38.69ZM15.93,97.4A12.92,12.92,0,0,1,12.19,101a4,4,0,0,1,.16-.93c.31-.83.7-1.71,1.16-2.65s.91-1.74,1.33-2.41,1-1.48,1.63-2.42,1.2-1.63,1.56-2.1,1-1.24,1.79-2.34A24.63,24.63,0,0,1,21.54,86,31.7,31.7,0,0,1,15.93,97.4ZM79,79.49q4.22-1.87,4.83-1.09v.16a.45.45,0,0,1-.15.31v.31A11.34,11.34,0,0,1,80.48,83a15.15,15.15,0,0,1-4.83,2.49,18.83,18.83,0,0,1-5.68.85Q72.46,82.29,79,79.49Zm54,7.94a2.76,2.76,0,0,1-.93.16h-.47c0-.1.11-.21.31-.31q2.34-3,8.1-3Q135.07,86.66,133,87.43ZM158,90.55v-.16c.94-2.07,2.7-3.11,5.3-3.11L162.32,89A11.81,11.81,0,0,1,158,90.55Zm5.3-2.18.15-.31a1,1,0,0,0,.24-.47,1,1,0,0,1,.23-.47H164a6.65,6.65,0,0,1,1.55.16A14.58,14.58,0,0,1,163.26,88.37Z" fill="#302c29"/><polygon points="19.34 52.87 12.63 52.87 12.63 43.62 11.41 43.62 11.41 53.88 19.34 53.88 19.34 52.87" fill="#302c29"/><path d="M28.6,54a5.33,5.33,0,1,0,0-10.65A5.33,5.33,0,1,0,28.6,54Zm0-9.63a4.3,4.3,0,1,1-4.19,4.3A4.06,4.06,0,0,1,28.6,44.41Z" fill="#302c29"/><polygon points="44.38 54.05 49.7 43.65 49.7 43.62 48.35 43.62 44.94 50.45 43.73 53.09 42.55 50.46 39.13 43.62 37.79 43.62 37.79 43.63 43.09 54.05 44.38 54.05" fill="#302c29"/><polygon points="62.43 52.85 55.71 52.85 55.71 49.26 62.17 49.26 62.17 48.25 55.71 48.25 55.71 44.63 62.43 44.63 62.43 43.62 54.49 43.62 54.49 53.88 62.43 53.88 62.43 52.85" fill="#302c29"/><polygon points="69.14 52.5 67.87 52.5 67.17 55.88 68.06 55.88 69.14 52.5" fill="#302c29"/></svg>