<svg id="Layer_1" data-name="Layer 1" xmlns="http://www.w3.org/2000/svg" viewBox="0 0 251.59 109.69"><polygon points="70.63 92.22 64.23 84.58 63.14 84.58 63.14 93.68 64.2 93.68 64.2 86.05 70.6 93.68 71.69 93.68 71.69 84.58 70.63 84.58 70.63 92.22" fill="#302c29"/><path d="M80.61,84.49l-4.67,9.19h1.19l1.21-2.39H84l1.21,2.39h1.19L81.7,84.49ZM78.79,90.4l2.37-4.66,2.35,4.66Z" fill="#302c29"/><rect x="90.61" y="84.58" width="1.07" height="9.1" fill="#302c29"/><polygon points="98.03 84.58 96.95 84.58 96.95 93.68 103.98 93.68 103.98 92.79 98.03 92.79 98.03 84.58" fill="#302c29"/><path d="M119.19,88.59c-1.62-.13-3.3,0-3.35-1.44,0-1,.87-1.41,1.68-1.62a5.38,5.38,0,0,1,1.47-.19,6.13,6.13,0,0,1,1.49.15c1,.24,1.79.67,1.83,1.68l1.07,0c0-1.36-1.2-2.19-2.66-2.53a7.17,7.17,0,0,0-1.75-.18,7.59,7.59,0,0,0-1.73.22c-1.4.38-2.49,1.19-2.49,2.47,0,2.36,2.69,2.25,4.37,2.37,1.13.09,3.65-.17,3.42,1.88-.08.71-.81,1.17-1.77,1.41a6.93,6.93,0,0,1-3.67-.15A2,2,0,0,1,115.58,91l-1,0c0,1.35,1.15,2.12,2.41,2.51a8.6,8.6,0,0,0,3.84.17c1.33-.28,2.73-.94,2.83-2.3C123.84,88.67,121.09,88.72,119.19,88.59Z" fill="#302c29"/><polygon points="127.12 85.48 131 85.48 131 93.68 132.06 93.68 132.06 85.48 135.94 85.48 135.94 84.58 127.12 84.58 127.12 85.48" fill="#302c29"/><path d="M148.34,88.81c0,5.49-7.15,5.49-7.15,0V84.58h-1.08v4.23a4.67,4.67,0,1,0,9.31,0V84.58h-1.08Z" fill="#302c29"/><path d="M158.77,84.56h-4.22v9.12h4.22a4.56,4.56,0,0,0,0-9.12Zm0,8.29h-3.13V85.52h3.13a3.67,3.67,0,0,1,0,7.33Z" fill="#302c29"/><rect x="168.02" y="84.58" width="1.07" height="9.1" fill="#302c29"/><path d="M178.65,84.38a4.73,4.73,0,1,0,4.8,4.72A4.58,4.58,0,0,0,178.65,84.38Zm0,8.54a3.82,3.82,0,1,1,3.72-3.82A3.61,3.61,0,0,1,178.65,92.92Z" fill="#302c29"/><path d="M32.68,59.76,12.25,16.87H3.69v.54c4.57,0,4.89,3.77,4.89,14.26V55.29c0,10.48-.32,14.26-4.89,14.26v.53H18.05v-.53c-4.57,0-8.94-3.83-8.94-19.31V43.48l.05-22.83C17.25,38,22,48.32,30.4,66.2h.47C37.42,48.64,42.79,34,48.54,18.63V55.29c0,10.48-.32,14.26-4.9,14.26v.53H58v-.53c-4.58,0-4.9-3.78-4.9-14.26V31.67c0-10.49.32-14.26,4.9-14.26v-.54H48.65Z" fill="#302c29"/><path d="M99.3,61.3h-.53c0,7.66-16.23,8.25-21.29,8.25H70.67V41.14a4.54,4.54,0,0,1,3.73-1.87c3.78.11,6.49,4.69,13,4.69,4.2,0,6.81-2.72,6.81-5.86h-.53c0,1.87-1.92,3-3.94,3-4.68,0-7.61-3.3-12.87-3.3a8.72,8.72,0,0,0-6.18,2.45V17.41h8.84c12.23,0,19.26,2.87,19.26,6.43v.22h.53V16.87H61.2v.54c4.58,0,4.9,3.77,4.9,14.26V55.29c0,10.48-.32,14.26-4.9,14.26v.53H99.3Z" fill="#302c29"/><path d="M145.7,69.55c-6.07,0-11-9.47-15.22-16-4.31-6.7-15.54-7.44-15.54-10.9,0-1.23.91-1.39,1.54-1.39,2.24,0,5.64,3.41,10.65,3.41,9.25,0,15.21-6.6,15.21-13.89,0-8.67-6.33-14.95-17.66-14.95-6.17,0-10,1.06-15.8,1.06h-6.39v.54c4.58,0,4.9,3.77,4.9,14.26V55.29c0,10.48-.32,14.26-4.9,14.26v.53H116.8v-.53c-4.57,0-4.89-3.78-4.89-14.26v-37a25.8,25.8,0,0,1,9.74-1.7c9.89,0,16.12,5.42,16.12,14.25,0,6.39-4.31,12.93-11,12.93-5,0-7.4-3-10.54-3a1.71,1.71,0,0,0-1.86,1.81c0,3.62,5.64,3.83,10.8,11.6,8.41,12.61,9.9,16,12.35,16h8.14Z" fill="#302c29"/><path d="M200.66,55.29V31.67c0-10.49.32-14.26,4.9-14.26v-.54H191.24v.54c4.58,0,4.9,3.77,4.9,14.26V55.29c0,10-.31,13.92-4.35,14.23-2.92-.3-4.56-3.22-6.77-8.75l-17-45h-.53c-3.35,8.83-5.32,14.1-8.57,22.67-.53,1.38-.26,2.82,1.22,2.82,3,0,4.63-5.59,7.19-5.59.69,0,1.27.43,1.27,1.44,0,5.53-21.28,10.53-21.28,23.62,0,5.53,3.51,10.38,9.69,10.38,10.58,0,16.81-9.37,16.81-22.3a53.44,53.44,0,0,0-.32-6.38l6.6,17.4c2,5.37,2.29,9.68-5.22,9.68v.53h30.71v-.53C201,69.55,200.66,65.77,200.66,55.29Zm-40.49,13.3c-5.22,0-8.35-3.83-8.35-8.83,0-13.14,17.34-15.38,17.34-22.51,0-1.38-.74-2.07-1.76-2.07-2.82,0-4.78,5.58-7.23,5.58-.85,0-1.28-.63-.59-2.5L165.7,22l6.44,17a32.43,32.43,0,0,1,1.12,10C173.26,57.68,169.05,68.59,160.17,68.59Z" fill="#302c29"/><path d="M247.91,17.41v-.54H233.54v.54c4.58,0,4.9,3.77,4.9,14.26V55.29c0,10.21-.32,14.05-4.56,14.24-6-.2-10.93-9.48-15.87-16.85-5.11-7.66-14.69-6.17-14.69-9.2,0-3.46,25.75-5.22,25.75-21.66a7.49,7.49,0,0,0-1.59-4.95h-5.27c1.17.86,1.86,3.09,1.86,5.06,0,14.9-21.28,16.76-21.28,21.55,0,3,4.89,1.81,10.8,10.64,8.41,12.61,9.9,16,12.34,16h22v-.53c-4.58,0-4.9-3.78-4.9-14.26V31.67C243,21.18,243.33,17.41,247.91,17.41Z" fill="#302c29"/></svg>